<?xml version="1.0" encoding="utf-8"?>
<!-- Generator: Adobe Illustrator 28.5.0, SVG Export Plug-In . SVG Version: 9.03 Build 54727)  -->
<svg version="1.1" id="Layer_1" xmlns="http://www.w3.org/2000/svg" xmlns:xlink="http://www.w3.org/1999/xlink" x="0px" y="0px"
	 width="800px" height="173.1px" viewBox="0 0 800 173.1" style="enable-background:new 0 0 800 173.1;" xml:space="preserve">
<style type="text/css">
	.Drop_x0020_Shadow{fill:none;}
	.Round_x0020_Corners_x0020_2_x0020_pt{fill:#FFFFFF;stroke:#231F20;stroke-miterlimit:10;}
	.Live_x0020_Reflect_x0020_X{fill:none;}
	.Bevel_x0020_Soft{fill:url(#SVGID_1_);}
	.Dusk{fill:#FFFFFF;}
	.Foliage_GS{fill:#FFDD00;}
	.Pompadour_GS{fill-rule:evenodd;clip-rule:evenodd;fill:#44ADE2;}
	.st0{fill:#94C83D;}
	.st1{fill:#6BA543;}
	.st2{fill:#424143;}
	.st3{fill:#FFFFFF;}
	.st4{fill:#6BA43A;}
</style>
<linearGradient id="SVGID_1_" gradientUnits="userSpaceOnUse" x1="-820" y1="0" x2="-819.2929" y2="0.7071">
	<stop  offset="0" style="stop-color:#DEDFE3"/>
	<stop  offset="0.1783" style="stop-color:#DADBDF"/>
	<stop  offset="0.3611" style="stop-color:#CECFD3"/>
	<stop  offset="0.546" style="stop-color:#B9BCBF"/>
	<stop  offset="0.7324" style="stop-color:#9CA0A2"/>
	<stop  offset="0.9181" style="stop-color:#787D7E"/>
	<stop  offset="1" style="stop-color:#656B6C"/>
</linearGradient>
<g>
	<g>
		<path class="st0" d="M22.8,37c12.6,0,22.8,10.2,22.8,22.8c0,3.4-0.7,6.6-2.1,9.5c-0.5,1.1-0.4,2.5,0.5,3.4l36.6,36.8
			c0.6,0.6,0.6,1.6,0,2.2l-6,6c-0.6,0.6-1.6,0.6-2.2,0L52.7,98c-1.8-1.8-4.7-1.8-6.5,0l-2.3,2.3c-0.9,0.9-1,2.3-0.5,3.4
			c1.4,2.9,2.2,6.2,2.2,9.5c0,12.6-10.2,22.8-22.8,22.8C10.2,136.1,0,125.9,0,113.2c0-12.6,10.2-22.8,22.8-22.8
			c3.4,0,6.6,0.8,9.5,2.2c1.1,0.6,2.5,0.4,3.4-0.5l2.2-2.3c1.8-1.8,1.8-4.7,0-6.5l-2.3-2.3c-0.9-0.9-2.2-1-3.4-0.5
			c-2.9,1.3-6.1,2.1-9.5,2.1C10.2,82.7,0,72.5,0,59.9C0,47.3,10.2,37,22.8,37z"/>
		<path class="st1" d="M113.2,127.5c12.6,0,22.8,10.2,22.8,22.8s-10.2,22.8-22.8,22.8c-12.6,0-22.8-10.2-22.8-22.8
			c0-3.4,1.9-7.7,3.3-10.6c0.6-1.1-0.7-1.4-1.6-2.3l-2.3-2.3c-1.8-1.8-4.7-1.8-6.5,0l-2.3,2.3c-0.9,0.9-1,2.3-0.5,3.4
			c1.4,2.9,2.2,6.2,2.2,9.5c0,12.6-10.2,22.8-22.8,22.8c-12.6,0-22.8-10.2-22.8-22.8s10.2-22.8,22.8-22.8c3.4,0,6.6,0.8,9.5,2.2
			c1.1,0.6,2.5,0.4,3.4-0.5l36.5-36.7c0.6-0.6,1.6-0.6,2.2,0l6.1,6.1c0.6,0.6,0.6,1.6,0,2.2L98,120.3c-1.8,1.8-1.8,4.7,0,6.5
			l2.3,2.3c0.9,0.9,2.3,1,3.4,0.5C106.6,128.3,109.9,127.5,113.2,127.5z"/>
		<path class="st0" d="M150.3,90.4c12.6,0,22.8,10.2,22.8,22.8s-10.2,22.8-22.8,22.8c-12.6,0-22.8-10.2-22.8-22.8
			c0-3.4,0.8-6.6,2.2-9.5c0.6-1.1,0.4-2.5-0.5-3.4L92.3,63.6c-0.6-0.6-0.6-1.6,0-2.2l6.1-6.1c0.6-0.6,1.6-0.6,2.2,0l20.7,20.8
			c1.2,1.2,3.2,1.2,4.4,0l3.3-3.3c0.9-0.9,1-2.2,0.5-3.4c-1.3-2.9-2.1-6.1-2.1-9.5c0-12.6,10.2-22.8,22.8-22.8
			c12.6,0,22.8,10.2,22.8,22.8s-10.2,22.8-22.8,22.8c-3.4,0-6.6-0.7-9.5-2.1c-1.1-0.5-2.5-0.4-3.4,0.5l-2.3,2.3
			c-1.8,1.8-1.8,4.7,0,6.5l2.3,2.3c0.9,0.9,2.3,1,3.4,0.5C143.7,91.2,146.9,90.4,150.3,90.4z"/>
		<path class="st1" d="M59.9,0c12.6,0,22.8,10.2,22.8,22.8c0,3.4-0.7,6.6-2.1,9.5c-0.5,1.1-0.4,2.5,0.5,3.4l3.3,3.3
			c1.2,1.2,3.2,1.2,4.4,0l3.3-3.3c0.9-0.9,1-2.2,0.5-3.4c-1.3-2.9-2.1-6.1-2.1-9.5C90.4,10.2,100.6,0,113.2,0
			c12.6,0,22.8,10.2,22.8,22.8c0,12.6-10.2,22.8-22.8,22.8c-3.4,0-6.6-0.7-9.5-2.1c-1.1-0.5-2.5-0.4-3.4,0.5L63.6,80.7
			c-0.6,0.6-1.6,0.6-2.2,0l-6-6c-0.6-0.6-0.6-1.6,0-2.2l20.7-20.7c1.2-1.2,1.2-3.2,0-4.4l-3.3-3.3c-0.9-0.9-2.2-1-3.3-0.5
			c-2.9,1.3-6.1,2.1-9.5,2.1C47.3,45.7,37,35.4,37,22.8C37,10.2,47.3,0,59.9,0z"/>
	</g>
	<g>
		<path class="st3" d="M274.6,22.4h27.2l47.2,125.5h-26.1l-10.5-30h-48l-10.5,30h-26.1L274.6,22.4z M304.6,96.2l-11-31.6L289,49.6
			h-1.4L283,64.6l-11.2,31.6H304.6z"/>
		<path class="st3" d="M362.8,58.5h21.6v11.9h1.4c2.2-4.2,5.7-7.7,10.3-10.4c4.7-2.7,9.8-4.1,15.4-4.1c4.1,0,7.8,0.6,11.2,1.9v23
			c-3.2-1.2-5.8-2-8-2.5c-2.2-0.5-4.5-0.8-6.9-0.8c-6.8,0-12.2,2.5-16.1,7.4c-4,4.9-6,11.1-6,18.6v44.5h-23V58.5z"/>
		<path class="st3" d="M438.9,142.4c-6.1-5.5-9.1-12.8-9.1-21.8c0-6,1.6-11.2,4.7-15.8c3.2-4.6,7.5-8.1,13-10.5
			c5.5-2.5,11.6-3.7,18.2-3.7c9.2,0,17.1,1.3,23.7,4v-3.9c0-4.9-1.8-8.9-5.5-11.9c-3.7-3-8.6-4.6-14.8-4.6c-4.2,0-8.3,1-12.2,2.9
			c-3.9,1.9-7.2,4.5-9.7,7.6l-14.7-11.6c4.3-5.6,9.8-9.9,16.3-13c6.5-3,13.7-4.6,21.4-4.6c13.7,0,24.1,3.2,31.2,9.5
			c7.1,6.3,10.7,15.5,10.7,27.7v55h-22.6v-9.1H488c-2.7,3.5-6.2,6.4-10.6,8.6c-4.4,2.2-9.4,3.3-15.2,3.3
			C452.7,150.7,444.9,147.9,438.9,142.4z M483.5,126.4c3.9-4.3,5.9-9.3,5.9-15c-6-2.8-12.2-4.2-18.8-4.2c-11.9,0-17.9,4.4-17.9,13.3
			c0,3.6,1.3,6.6,3.9,8.9c2.6,2.3,6.3,3.4,11,3.4C474.3,132.8,479.6,130.7,483.5,126.4z"/>
		<path class="st3" d="M527.7,129.2L574.4,78h-45.2V58.5h73.5v18.8L556,128.5h48v19.5h-76.3V129.2z"/>
		<path class="st3" d="M617.3,129.2L664,78h-45.2V58.5h73.5v18.8l-46.6,51.2h48v19.5h-76.3V129.2z"/>
		<path class="st3" d="M727.8,144.5c-7.2-4.1-12.9-9.8-16.9-17c-4-7.2-6-15.3-6-24.3c0-8.9,2-16.9,6-24.2c4-7.2,9.7-12.9,16.9-17.1
			c7.2-4.1,15.5-6.2,24.7-6.2c9.1,0,17.3,2.1,24.5,6.2c7.2,4.1,12.9,9.8,16.9,17.1c4,7.2,6,15.3,6,24.2c0,9-2,17.1-6,24.3
			c-4,7.2-9.7,12.9-16.9,17c-7.2,4.1-15.4,6.2-24.5,6.2C743.3,150.7,735,148.6,727.8,144.5z M764.8,126.3c3.7-2.1,6.7-5.1,8.9-9.1
			c2.2-4,3.3-8.6,3.3-14c0-5.3-1.1-9.9-3.3-13.8c-2.2-4-5.2-7-8.9-9.1c-3.7-2.1-7.8-3.2-12.3-3.2c-4.4,0-8.5,1.1-12.3,3.2
			c-3.7,2.1-6.7,5.1-9,9.1c-2.3,4-3.4,8.6-3.4,13.8c0,5.3,1.1,9.9,3.4,13.9c2.3,4,5.3,7.1,9,9.2c3.7,2.1,7.8,3.2,12.3,3.2
			C756.9,129.5,761,128.5,764.8,126.3z"/>
	</g>
</g>
</svg>
