<?xml version="1.0" encoding="utf-8"?>
<!-- Generator: Adobe Illustrator 28.5.0, SVG Export Plug-In . SVG Version: 9.03 Build 54727)  -->
<svg version="1.1" id="Layer_1" xmlns="http://www.w3.org/2000/svg" xmlns:xlink="http://www.w3.org/1999/xlink" x="0px" y="0px"
	 width="802.6px" height="640.2px" viewBox="0 0 802.6 640.2" style="enable-background:new 0 0 802.6 640.2;" xml:space="preserve"
	>
<style type="text/css">
	.Drop_x0020_Shadow{fill:none;}
	.Round_x0020_Corners_x0020_2_x0020_pt{fill:#FFFFFF;stroke:#231F20;stroke-miterlimit:10;}
	.Live_x0020_Reflect_x0020_X{fill:none;}
	.Bevel_x0020_Soft{fill:url(#SVGID_1_);}
	.Dusk{fill:#FFFFFF;}
	.Foliage_GS{fill:#FFDD00;}
	.Pompadour_GS{fill-rule:evenodd;clip-rule:evenodd;fill:#44ADE2;}
	.st0{fill:#94C83D;}
	.st1{fill:#6BA543;}
	.st2{fill:#424143;}
	.st3{fill:#FFFFFF;}
	.st4{fill:#6BA43A;}
</style>
<linearGradient id="SVGID_1_" gradientUnits="userSpaceOnUse" x1="-1650" y1="-1260.552" x2="-1649.2928" y2="-1259.8448">
	<stop  offset="0" style="stop-color:#DEDFE3"/>
	<stop  offset="0.1783" style="stop-color:#DADBDF"/>
	<stop  offset="0.3611" style="stop-color:#CECFD3"/>
	<stop  offset="0.546" style="stop-color:#B9BCBF"/>
	<stop  offset="0.7324" style="stop-color:#9CA0A2"/>
	<stop  offset="0.9181" style="stop-color:#787D7E"/>
	<stop  offset="1" style="stop-color:#656B6C"/>
</linearGradient>
<g>
	<g>
		<g>
			<g>
				<g>
					<g>
						<g>
							<path d="M268.3,78.8c26.8,0,48.6,21.7,48.6,48.6c0,7.3-1.6,14.1-4.4,20.3c-1.1,2.4-0.8,5.3,1.1,7.1l77.9,78.2
								c1.3,1.3,1.3,3.4,0,4.6l-12.8,12.9c-1.3,1.3-3.4,1.3-4.6,0l-42.1-41.9c-3.8-3.8-10-3.8-13.9,0l-4.9,4.8
								c-1.9,1.9-2.2,4.8-1.1,7.3c3,6.2,4.8,13.1,4.8,20.3c0,26.8-21.7,48.6-48.6,48.6c-26.8,0-48.6-21.7-48.6-48.6
								c0-26.8,21.7-48.6,48.6-48.6c7.1,0,14,1.7,20.3,4.8c2.4,1.2,5.4,0.9,7.3-1.1l4.8-4.8c3.8-3.8,3.8-10.1,0-13.9l-4.8-4.8
								c-1.9-1.9-4.7-2.2-7.1-1.1c-6.2,2.9-13.1,4.4-20.3,4.4c-26.8,0-48.6-21.7-48.6-48.6C219.8,100.5,241.5,78.8,268.3,78.8z"/>
						</g>
						<g>
							<path d="M460.7,271.2c26.8,0,48.6,21.7,48.6,48.6c0,26.8-21.7,48.6-48.6,48.6c-26.8,0-48.6-21.7-48.6-48.6
								c0-7.1,4-16.3,7.1-22.6c1.2-2.4-1.5-3-3.4-4.9l-5-5c-3.8-3.8-10-3.8-13.9,0l-5,5c-1.9,1.9-2.2,4.8-1.1,7.3
								c3,6.2,4.8,13.1,4.8,20.3c0,26.8-21.7,48.6-48.6,48.6c-26.8,0-48.6-21.7-48.6-48.6c0-26.8,21.7-48.6,48.6-48.6
								c7.1,0,14,1.7,20.3,4.8c2.4,1.2,5.4,0.8,7.3-1.1l77.7-78c1.3-1.3,3.4-1.3,4.6,0l13,13c1.3,1.3,1.3,3.4,0,4.6l-41.7,41.6
								c-3.8,3.8-3.9,10.1,0,13.9l4.9,4.9c1.9,1.9,4.8,2.2,7.3,1.1C446.7,272.9,453.5,271.2,460.7,271.2z"/>
						</g>
						<g>
							<path d="M539.5,192.4c26.8,0,48.6,21.7,48.6,48.6s-21.7,48.6-48.6,48.6c-26.8,0-48.6-21.7-48.6-48.6c0-7.1,1.7-14,4.8-20.3
								c1.2-2.4,0.9-5.4-1.1-7.3l-78.4-78.1c-1.3-1.3-1.3-3.4,0-4.6l13-13c1.3-1.3,3.4-1.3,4.6,0l44.1,44.2c2.6,2.6,6.7,2.6,9.3,0
								l7.1-7.1c1.9-1.9,2.2-4.7,1.1-7.1c-2.9-6.2-4.4-13.1-4.4-20.3c0-26.8,21.7-48.6,48.6-48.6c26.8,0,48.6,21.7,48.6,48.6
								s-21.7,48.6-48.6,48.6c-7.3,0-14.1-1.6-20.3-4.4c-2.4-1.1-5.3-0.8-7.1,1.1l-4.8,4.8c-3.8,3.8-3.9,10.1,0,13.9l4.8,4.8
								c1.9,1.9,4.8,2.2,7.3,1.1C525.5,194.1,532.4,192.4,539.5,192.4z"/>
						</g>
						<g>
							<path d="M347.1,0c26.8,0,48.6,21.7,48.6,48.6c0,7.3-1.6,14.1-4.4,20.3c-1.1,2.4-0.8,5.3,1.1,7.1l6.9,6.9
								c2.6,2.6,6.7,2.6,9.3,0l6.9-7c1.9-1.9,2.2-4.7,1.1-7.1c-2.9-6.2-4.4-13.1-4.4-20.3c0-26.8,21.7-48.6,48.6-48.6
								c26.8,0,48.6,21.7,48.6,48.6c0,26.8-21.7,48.6-48.6,48.6c-7.3,0-14.1-1.6-20.3-4.4c-2.4-1.1-5.3-0.8-7.1,1.1l-78.1,77.8
								c-1.3,1.3-3.4,1.3-4.6,0l-12.8-12.8c-1.3-1.3-1.3-3.4,0-4.6l44-44.1c2.6-2.6,2.5-6.7,0-9.3l-7-7c-1.9-1.9-4.7-2.2-7.1-1.1
								c-6.2,2.9-13.1,4.4-20.3,4.4c-26.8,0-48.6-21.7-48.6-48.6C298.6,21.8,320.3,0,347.1,0z"/>
						</g>
					</g>
				</g>
				<g>
					<path d="M65.7,415.5h38L169.6,591H133l-14.7-41.9H51.2L36.5,591H0L65.7,415.5z M107.6,518.7l-15.4-44.1l-6.4-21.1h-2l-6.4,21.1
						l-15.7,44.1H107.6z"/>
					<path d="M188.9,466H219v16.7h2c3.1-5.9,7.9-10.7,14.5-14.6c6.5-3.8,13.7-5.8,21.6-5.8c5.7,0,10.9,0.9,15.7,2.7v32.1
						c-4.4-1.6-8.1-2.8-11.1-3.6c-3-0.7-6.2-1.1-9.7-1.1c-9.5,0-17,3.4-22.5,10.3c-5.6,6.9-8.3,15.5-8.3,26V591h-32.1V466z"/>
					<path d="M295.3,583.3c-8.5-7.8-12.7-17.9-12.7-30.5c0-8.3,2.2-15.7,6.6-22.1c4.4-6.4,10.5-11.3,18.1-14.7
						c7.7-3.4,16.2-5.1,25.5-5.1c12.9,0,23.9,1.9,33.1,5.6v-5.4c0-6.9-2.6-12.4-7.7-16.7c-5.1-4.2-12-6.4-20.7-6.4
						c-5.9,0-11.6,1.3-17,4c-5.5,2.7-10,6.2-13.6,10.7l-20.6-16.2c6-7.8,13.6-13.9,22.8-18.1c9.1-4.2,19.1-6.4,29.9-6.4
						c19.1,0,33.6,4.4,43.6,13.2c10,8.8,14.9,21.7,14.9,38.7V591h-31.6v-12.7h-2c-3.8,4.9-8.7,8.9-14.8,12
						c-6.1,3.1-13.2,4.7-21.2,4.7C314.6,594.9,303.7,591,295.3,583.3z M357.6,561c5.5-6,8.2-12.9,8.2-21c-8.3-3.9-17.1-5.9-26.2-5.9
						c-16.7,0-25,6.2-25,18.6c0,5.1,1.8,9.2,5.4,12.4c3.6,3.2,8.7,4.8,15.4,4.8C344.7,569.9,352.1,566.9,357.6,561z"/>
					<path d="M419.5,564.8l65.2-71.5h-63.2V466h102.7v26.2l-65.2,71.5h67.1V591H419.5V564.8z"/>
					<path d="M544.7,564.8l65.2-71.5h-63.2V466h102.7v26.2l-65.2,71.5h67.1V591H544.7V564.8z"/>
					<path d="M699,586.2c-10.1-5.8-18-13.7-23.6-23.8c-5.6-10-8.5-21.4-8.5-33.9c0-12.4,2.8-23.7,8.5-33.8
						c5.6-10.1,13.5-18.1,23.6-23.9c10.1-5.8,21.6-8.7,34.5-8.7c12.7,0,24.2,2.9,34.3,8.7c10.1,5.8,18,13.8,23.6,23.9
						c5.6,10.1,8.5,21.4,8.5,33.8c0,12.6-2.8,23.9-8.5,33.9c-5.6,10-13.5,18-23.6,23.8c-10.1,5.8-21.6,8.7-34.3,8.7
						C720.7,594.9,709.2,592,699,586.2z M750.7,560.8c5.2-2.9,9.4-7.2,12.5-12.7c3.1-5.6,4.7-12.1,4.7-19.6c0-7.4-1.6-13.8-4.7-19.4
						c-3.1-5.6-7.3-9.8-12.5-12.7c-5.2-2.9-10.9-4.4-17.2-4.4c-6.2,0-11.9,1.5-17.2,4.4c-5.2,2.9-9.4,7.2-12.6,12.7
						c-3.2,5.6-4.8,12-4.8,19.4c0,7.4,1.6,13.8,4.8,19.5c3.2,5.6,7.4,9.9,12.6,12.9c5.2,2.9,10.9,4.4,17.2,4.4
						C739.8,565.2,745.5,563.8,750.7,560.8z"/>
				</g>
			</g>
		</g>
		<g>
			<path d="M429.3,638.1c-2.4-1.4-4.3-3.4-5.7-5.9c-1.4-2.5-2.1-5.2-2.1-8.2c0-2.9,0.7-5.6,2.1-8.1c1.4-2.5,3.3-4.4,5.7-5.9
				c2.4-1.4,5.1-2.2,8.1-2.2c3,0,5.7,0.7,8.1,2.2c2.4,1.4,4.3,3.4,5.7,5.9c1.4,2.5,2.1,5.2,2.1,8.1c0,3-0.7,5.7-2.1,8.2
				s-3.3,4.4-5.7,5.9c-2.4,1.4-5.1,2.2-8.1,2.2C434.4,640.2,431.7,639.5,429.3,638.1z M443.5,635.1c1.9-1.1,3.3-2.6,4.4-4.5
				c1.1-1.9,1.6-4.1,1.6-6.6c0-2.4-0.5-4.6-1.6-6.6c-1.1-1.9-2.6-3.4-4.4-4.5c-1.9-1.1-3.9-1.6-6.1-1.6c-2.2,0-4.3,0.5-6.1,1.6
				c-1.8,1.1-3.3,2.6-4.4,4.5c-1.1,1.9-1.6,4.1-1.6,6.5c0,2.4,0.5,4.6,1.6,6.5c1.1,1.9,2.6,3.4,4.4,4.5c1.8,1.1,3.9,1.6,6.1,1.6
				C439.6,636.7,441.6,636.2,443.5,635.1z"/>
			<path d="M458.7,608.6h10.4c1.7,0,3.3,0.4,4.8,1.2c1.5,0.8,2.6,1.9,3.5,3.3c0.9,1.4,1.3,3,1.3,4.7c0,1.8-0.4,3.3-1.3,4.7
				c-0.9,1.4-2.1,2.5-3.5,3.3c-1.5,0.8-3.1,1.2-4.8,1.2h-6.8v12.6h-3.6V608.6z M469.2,623.4c1.2,0,2.2-0.3,3-0.8
				c0.9-0.5,1.6-1.3,2.1-2.1c0.5-0.9,0.7-1.8,0.7-2.7c0-1-0.2-1.9-0.7-2.7c-0.5-0.9-1.2-1.6-2.1-2.1c-0.9-0.5-1.9-0.8-3-0.8h-6.9
				v11.3H469.2z"/>
			<path d="M483.6,608.6h17.9v3.5h-14.3v10.3h12.9v3.5h-12.9V636h14.3v3.5h-17.9V608.6z"/>
			<path d="M507.4,608.6h4.5l15.5,24.7h0.2l-0.2-6v-18.7h3.7v31h-3.8l-16.3-25.8h-0.2l0.2,6v19.9h-3.6V608.6z"/>
			<path d="M547,608.6h4.2l11.8,31h-4l-3.1-8.5h-13.4l-3.1,8.5h-4L547,608.6z M554.5,627.5l-4.1-11.2l-1.3-3.3H549l-1.2,3.3
				l-4.1,11.2H554.5z"/>
			<path d="M567,608.6h10.4c1.7,0,3.3,0.4,4.8,1.2s2.6,1.9,3.5,3.3c0.9,1.4,1.3,3,1.3,4.7c0,1.8-0.4,3.3-1.3,4.7
				c-0.9,1.4-2.1,2.5-3.5,3.3s-3.1,1.2-4.8,1.2h-6.8v12.6H567V608.6z M577.5,623.4c1.2,0,2.2-0.3,3-0.8c0.9-0.5,1.6-1.3,2.1-2.1
				c0.5-0.9,0.7-1.8,0.7-2.7c0-1-0.2-1.9-0.7-2.7c-0.5-0.9-1.2-1.6-2.1-2.1c-0.9-0.5-1.9-0.8-3-0.8h-6.9v11.3H577.5z"/>
			<path d="M591.9,608.6h3.6v31h-3.6V608.6z"/>
			<path d="M612.5,608.6h3.6v31h-3.6V608.6z"/>
			<path d="M623,608.6h4.5l15.5,24.7h0.2l-0.2-6v-18.7h3.7v31h-3.8l-16.3-25.8h-0.2l0.2,6v19.9H623V608.6z"/>
			<path d="M653.7,608.6h3.6v31h-3.6V608.6z"/>
			<path d="M670.6,612.1h-8.7v-3.5h21v3.5h-8.7v27.5h-3.7V612.1z"/>
			<path d="M687.5,608.6h3.6v31h-3.6V608.6z"/>
			<path d="M707,608.6h4.2l11.8,31h-4l-3.1-8.5h-13.4l-3.1,8.5h-4L707,608.6z M714.5,627.5l-4.1-11.2l-1.3-3.3H709l-1.2,3.3
				l-4.1,11.2H714.5z"/>
			<path d="M730.6,612.1h-8.7v-3.5h21v3.5h-8.7v27.5h-3.7V612.1z"/>
			<path d="M747.5,608.6h3.6v31h-3.6V608.6z"/>
			<path d="M754.6,608.6h4.1l7.7,22.4l1,3.1h0.2l1.1-3.1l8-22.4h4.1l-11.3,31h-3.8L754.6,608.6z"/>
			<path d="M784.7,608.6h17.9v3.5h-14.3v10.3h12.9v3.5h-12.9V636h14.3v3.5h-17.9V608.6z"/>
		</g>
	</g>
</g>
</svg>
