<?xml version="1.0" encoding="utf-8"?>
<!-- Generator: Adobe Illustrator 22.0.1, SVG Export Plug-In . SVG Version: 6.00 Build 0)  -->
<svg version="1.1" id="Layer_1" xmlns="http://www.w3.org/2000/svg" xmlns:xlink="http://www.w3.org/1999/xlink" x="0px" y="0px"
	 viewBox="0 0 504 360" enable-background="new 0 0 504 360" xml:space="preserve">
<g>
	<g>
		<path fill="#93D500" d="M226.89,137.615h-0.137l-35.805,0.001c0.006,0.176,0.012,0.352,0.02,0.526
			c0.015,0.338,0.039,0.675,0.06,1.013c0.01,0.145,0.016,0.29,0.027,0.433c0.028,0.391,0.062,0.781,0.097,1.169
			c0.008,0.088,0.016,0.176,0.025,0.262c0.041,0.433,0.088,0.865,0.14,1.295c0.003,0.043,0.007,0.084,0.013,0.125
			c0.056,0.464,0.116,0.929,0.184,1.391c0,0.005,0.001,0.012,0.003,0.017c0.412,2.865,1.031,5.703,1.856,8.493
			c0.003,0.012,0.008,0.023,0.01,0.035c0.129,0.439,0.266,0.876,0.405,1.31c0.009,0.026,0.017,0.051,0.025,0.077
			c0.008,0.026,0.016,0.052,0.025,0.077c0.127,0.393,0.261,0.784,0.396,1.177c0.035,0.098,0.069,0.198,0.105,0.297
			c0.12,0.339,0.243,0.679,0.369,1.017c0.059,0.153,0.116,0.306,0.174,0.46c0.109,0.281,0.218,0.559,0.328,0.84
			c0.084,0.21,0.171,0.421,0.259,0.632c0.09,0.219,0.182,0.437,0.275,0.657c0.115,0.268,0.233,0.533,0.351,0.8
			c0.071,0.159,0.142,0.318,0.213,0.475c0.146,0.32,0.296,0.64,0.448,0.957c0.05,0.102,0.097,0.205,0.148,0.307
			c0.176,0.366,0.356,0.729,0.538,1.089c0.031,0.056,0.057,0.111,0.086,0.166c0.206,0.399,0.415,0.798,0.63,1.193
			c0.009,0.017,0.02,0.034,0.028,0.053c0.045,0.082,0.095,0.161,0.14,0.243l30.697-18.492l0.114-0.068
			C227.923,143.088,227.169,140.373,226.89,137.615z"/>
		<polygon fill="#93D500" points="192.644,154.097 192.655,154.129 193.815,153.764 		"/>
		<path fill="#4D5A31" d="M235.723,154.115l-0.087,0.087l-25.317,25.318c0.13,0.122,0.259,0.244,0.392,0.362
			c0.236,0.214,0.477,0.427,0.716,0.636c0.124,0.11,0.246,0.221,0.369,0.327c0.287,0.248,0.576,0.49,0.865,0.732
			c0.079,0.066,0.156,0.13,0.234,0.195c0.325,0.269,0.656,0.533,0.987,0.795c0.042,0.033,0.085,0.067,0.127,0.101
			c0.359,0.283,0.722,0.557,1.087,0.834c0.016,0.01,0.03,0.02,0.041,0.03c1.525,1.14,3.105,2.207,4.736,3.202
			c0.056,0.035,0.112,0.068,0.169,0.103c0.31,0.185,0.62,0.37,0.933,0.551c0.191,0.109,0.382,0.218,0.573,0.326
			c0.18,0.104,0.36,0.205,0.543,0.305c0.328,0.181,0.659,0.359,0.99,0.533c0.045,0.024,0.091,0.049,0.137,0.073
			c0.921,0.481,1.857,0.929,2.8,1.359l0,0l0.898-2.181l12.734-30.923l0.047-0.115C238.31,156.023,236.977,155.142,235.723,154.115z"
			/>
		<path fill="#6BA43A" d="M233.086,151.593c-0.273-0.305-0.534-0.616-0.789-0.931c-0.226-0.279-0.445-0.561-0.657-0.848
			c-0.242-0.328-0.479-0.658-0.703-0.995c-0.226-0.338-0.448-0.679-0.657-1.025l-30.735,18.515c0.472,0.784,0.965,1.548,1.467,2.303
			c0.017,0.026,0.033,0.053,0.05,0.079l0,0c0.006,0.009,0.012,0.019,0.018,0.028c0.017,0.025,0.032,0.051,0.048,0.076
			c0.002,0.003,0.003,0.005,0.005,0.008c0.04,0.06,0.082,0.12,0.123,0.18c0.002,0.004,0.005,0.007,0.007,0.011c0,0,0,0,0,0
			c0.001,0.002,0.002,0.003,0.003,0.005c0.534,0.79,1.082,1.566,1.647,2.323c0.012,0.016,0.025,0.032,0.037,0.049
			c0.012,0.016,0.024,0.031,0.036,0.047c0.245,0.326,0.492,0.651,0.746,0.973c0.033,0.042,0.066,0.084,0.101,0.125
			c0.261,0.333,0.526,0.662,0.795,0.987c0.063,0.077,0.129,0.154,0.192,0.233c0.244,0.291,0.486,0.579,0.735,0.867
			c0.106,0.122,0.216,0.246,0.324,0.368c0.211,0.241,0.421,0.48,0.638,0.718c0.118,0.13,0.24,0.261,0.362,0.391
			c0.055,0.059,0.109,0.118,0.164,0.177c0.158,0.17,0.315,0.341,0.475,0.509c0.064,0.067,0.13,0.133,0.195,0.2
			c0.28,0.292,0.562,0.583,0.85,0.871l25.354-25.355C233.628,152.192,233.356,151.893,233.086,151.593z"/>
		<path fill="#4D5A31" d="M266.695,154.102c-0.279,0.225-0.561,0.445-0.847,0.656l0.063,0.105l18.486,30.687
			c0.856-0.559,1.702-1.135,2.529-1.741c1.789-1.319,3.521-2.749,5.189-4.289l-25.32-25.319L266.695,154.102z"/>
		<path fill="#93D500" d="M282.061,187.012c0.014-0.008,0.027-0.015,0.041-0.023l-0.001-0.001
			C282.087,186.996,282.074,187.004,282.061,187.012L282.061,187.012z"/>
		<polygon fill="#93D500" points="282.043,187.023 282.043,187.023 282.043,187.022 282.042,187.023 		"/>
		<path fill="#93D500" d="M282.101,186.988l0.001,0.001c0.081-0.045,0.162-0.087,0.242-0.135l-0.005-0.008
			C282.259,186.893,282.18,186.941,282.101,186.988z"/>
		<polygon fill="#93D500" points="282.05,187.018 282.061,187.012 282.06,187.012 		"/>
		<polygon fill="#93D500" points="282.042,187.023 282.043,187.022 281.998,186.946 		"/>
		<path fill="#93D500" d="M282.061,187.012L282.061,187.012c0.014-0.007,0.028-0.014,0.041-0.022l0-0.001
			C282.088,186.997,282.074,187.004,282.061,187.012z"/>
		<polygon fill="#93D500" points="282.027,187.032 282.027,187.032 282.037,187.026 282.037,187.026 		"/>
		<polygon fill="#93D500" points="282.042,187.023 282.037,187.026 282.037,187.026 282.043,187.023 		"/>
		<path fill="#93D500" d="M282.05,187.018c-0.002,0.001-0.005,0.003-0.007,0.004l0,0.001c0.006-0.003,0.012-0.007,0.018-0.01
			l0-0.001C282.057,187.014,282.053,187.016,282.05,187.018z"/>
		<path fill="#93D500" d="M282.102,186.99c0.08-0.047,0.162-0.088,0.241-0.136C282.263,186.902,282.182,186.944,282.102,186.99
			L282.102,186.99z"/>
		<polygon fill="#93D500" points="282.343,186.854 282.338,186.846 282.338,186.846 		"/>
		
			<rect x="282.027" y="187.032" transform="matrix(0.8321 -0.5547 0.5547 0.8321 -56.3805 187.8522)" fill="#93D500" width="0" height="0"/>
		<polygon fill="#93D500" points="282.017,187.038 282.018,187.037 282.019,187.037 		"/>
		<polygon fill="#93D500" points="282.026,187.033 282.019,187.037 282.019,187.037 282.027,187.032 282.026,187.032 		"/>
		<path fill="#93D500" d="M281.71,185.803l-0.627-1.041l-17.256-28.644c-0.349,0.21-0.706,0.4-1.063,0.592
			c-0.359,0.193-0.723,0.374-1.09,0.548c-3.315,1.573-6.904,2.376-10.497,2.376c-2.354,0-4.707-0.34-6.982-1.019
			c-0.388-0.116-0.766-0.268-1.149-0.403c-0.383-0.135-0.771-0.252-1.148-0.407l-12.725,30.902l-0.499,1.212l-0.427,1.037
			l-0.002,0.005c0.033,0.014,0.066,0.025,0.099,0.038c0.035,0.014,0.07,0.026,0.104,0.04l0.001,0c0.001,0,0.002,0.001,0.002,0.001
			c0.009,0.004,0.017,0.006,0.025,0.009c0.301,0.122,0.603,0.229,0.905,0.346c0.379,0.147,0.757,0.296,1.136,0.435
			c0.193,0.071,0.386,0.153,0.579,0.222l0.001,0l0,0c3.986,1.408,8.111,2.393,12.305,2.945c0.164,0.02,0.327,0.043,0.492,0.065
			c0.171,0.02,0.344,0.037,0.516,0.056c0.323,0.037,0.646,0.074,0.97,0.106c0.08,0.006,0.161,0.013,0.24,0.021
			c0.398,0.037,0.795,0.071,1.191,0.099c0.135,0.01,0.271,0.016,0.405,0.025c0.349,0.023,0.696,0.045,1.044,0.061
			c0.213,0.012,0.426,0.018,0.64,0.026c0.276,0.01,0.551,0.021,0.829,0.029c0.397,0.01,0.799,0.013,1.199,0.015
			c0.095,0,0.189,0.002,0.283,0.004c3.351,0,6.7-0.279,10.011-0.834h0c0.056-0.008,0.111-0.018,0.167-0.026
			c0.35-0.061,0.7-0.126,1.051-0.191c0.199-0.039,0.4-0.076,0.597-0.115c0.204-0.042,0.41-0.085,0.614-0.128
			c0.342-0.072,0.683-0.145,1.023-0.225c0.061-0.013,0.122-0.026,0.185-0.042c5.036-1.174,9.899-2.991,14.467-5.394l0.002-0.001l0,0
			c0.299-0.158,0.591-0.337,0.889-0.5c0.355-0.194,0.708-0.395,1.061-0.597c0.244-0.14,0.491-0.269,0.734-0.413
			c0.001,0,0.001-0.001,0.001-0.001c0.003-0.002,0.005-0.003,0.008-0.005c0,0,0,0,0.001,0l0,0c0.003-0.002,0.007-0.004,0.01-0.006
			c0.002-0.001,0.004-0.002,0.005-0.003l-0.044-0.076l0.045,0.076c0.002-0.001,0.005-0.003,0.007-0.004
			c0.003-0.002,0.007-0.004,0.01-0.006c0.014-0.008,0.027-0.016,0.04-0.024c0.079-0.047,0.158-0.095,0.237-0.142l0,0L281.71,185.803
			z"/>
		<path fill="#93D500" d="M235.737,116.265c0.279-0.226,0.561-0.445,0.848-0.657l-0.063-0.105l-18.485-30.687
			c-0.859,0.561-1.707,1.138-2.535,1.746c-1.788,1.316-3.518,2.745-5.183,4.283l25.32,25.32L235.737,116.265z"/>
		<path fill="#4D5A31" d="M208.563,92.53c-0.288,0.288-0.56,0.586-0.841,0.878c-0.281,0.292-0.567,0.582-0.841,0.879
			c-1.87,2.025-3.58,4.145-5.122,6.348c-0.074,0.104-0.149,0.212-0.221,0.317c-0.174,0.253-0.346,0.506-0.515,0.76
			c-0.176,0.264-0.352,0.531-0.522,0.798c-0.064,0.097-0.128,0.196-0.189,0.293c-5.823,9.136-8.944,19.498-9.364,29.948
			c-0.016,0.405-0.024,0.811-0.032,1.216c-0.008,0.405-0.021,0.811-0.021,1.216l35.859-0.001c0-0.406,0.038-0.81,0.058-1.216
			c0.02-0.406,0.026-0.812,0.067-1.216c0.464-4.669,2.266-9.229,5.408-13.059c0.255-0.311,0.544-0.603,0.817-0.904
			c0.273-0.301,0.526-0.613,0.816-0.903L208.563,92.53z"/>
		<path fill="#4D5A31" d="M282.551,83.629c-0.049-0.03-0.099-0.06-0.148-0.089c-0.315-0.193-0.633-0.379-0.952-0.566
			c-0.185-0.107-0.369-0.211-0.555-0.317c-0.188-0.104-0.372-0.209-0.56-0.312c-0.324-0.178-0.648-0.352-0.974-0.525
			c-0.051-0.026-0.101-0.054-0.153-0.08c-2.102-1.1-4.262-2.068-6.467-2.907c-0.056-0.024-0.115-0.045-0.171-0.066
			c-0.48-0.18-0.962-0.358-1.447-0.527c-3.916-1.368-7.967-2.328-12.083-2.868c-0.168-0.024-0.336-0.047-0.504-0.068
			c-0.169-0.021-0.337-0.038-0.504-0.056c-0.324-0.038-0.649-0.074-0.974-0.106c-0.09-0.008-0.181-0.015-0.273-0.024
			c-0.386-0.036-0.773-0.07-1.158-0.097c-0.15-0.011-0.301-0.019-0.452-0.028c-0.331-0.022-0.665-0.045-0.996-0.059
			c-0.177-0.009-0.353-0.014-0.528-0.02l-0.002,35.805v0.14c1.844,0.191,3.672,0.584,5.446,1.186l26.454-26.454
			C284.565,84.912,283.572,84.25,282.551,83.629z"/>
		<polygon fill="#6BA43A" points="220.722,84.561 220.095,83.519 220.095,83.519 220.722,84.561 		"/>
		<polygon fill="#6BA43A" points="220.09,83.513 220.095,83.519 220.095,83.519 		"/>
		<path fill="#6BA43A" d="M250,74.887c-0.405,0.008-0.811,0.009-1.216,0.026c-2.537,0.102-5.069,0.362-7.58,0.781
			c-0.055,0.009-0.11,0.018-0.166,0.027c-0.352,0.061-0.701,0.125-1.051,0.191c-0.198,0.037-0.398,0.075-0.596,0.114
			c-0.206,0.041-0.412,0.084-0.618,0.129c-0.341,0.071-0.682,0.145-1.021,0.224h0c-0.062,0.013-0.123,0.029-0.187,0.042
			c-5.035,1.174-9.901,2.992-14.469,5.396c0,0,0,0,0,0l-0.001,0c-0.298,0.158-0.589,0.337-0.886,0.499
			c-0.355,0.194-0.708,0.395-1.06,0.598c-0.262,0.151-0.528,0.289-0.788,0.445c-0.003,0.002-0.006,0.003-0.009,0.005
			c0,0-0.001,0-0.001,0.001c-0.018,0.011-0.037,0.02-0.055,0.031c-0.068,0.041-0.138,0.075-0.206,0.116l0.004,0.007l0.628,1.042h0
			l17.882,29.686c0.349-0.21,0.706-0.401,1.063-0.593c0.359-0.193,0.723-0.375,1.089-0.549c2.554-1.216,5.268-1.97,8.027-2.25
			c0.405-0.041,0.81-0.075,1.216-0.096c0.405-0.02,0.81-0.041,1.216-0.042l0.002-35.858C250.811,74.861,250.406,74.878,250,74.887z"
			/>
		<path fill="#4D5A31" d="M311.464,132.218c-0.016-0.322-0.036-0.644-0.058-0.966c-0.01-0.16-0.019-0.32-0.032-0.483
			c-0.027-0.378-0.059-0.757-0.094-1.136c-0.008-0.098-0.017-0.196-0.026-0.294c-0.041-0.423-0.087-0.846-0.135-1.268
			c-0.005-0.034-0.008-0.068-0.012-0.102c-0.002-0.016-0.004-0.033-0.006-0.049c-0.056-0.456-0.116-0.912-0.181-1.367
			c-0.001-0.014-0.003-0.03-0.006-0.042c-0.413-2.859-1.03-5.692-1.853-8.478c-0.006-0.019-0.011-0.037-0.017-0.054
			c-0.13-0.433-0.262-0.863-0.399-1.293c-0.018-0.056-0.037-0.113-0.055-0.17c-0.127-0.388-0.256-0.774-0.39-1.16
			c-0.038-0.104-0.074-0.208-0.11-0.313c-0.118-0.334-0.24-0.668-0.364-1c-0.06-0.159-0.12-0.318-0.182-0.475
			c-0.105-0.276-0.213-0.552-0.322-0.825c-0.088-0.219-0.175-0.435-0.265-0.65c-0.088-0.214-0.178-0.426-0.268-0.639
			c-0.118-0.273-0.237-0.545-0.358-0.817c-0.068-0.152-0.136-0.306-0.206-0.46c-0.148-0.323-0.3-0.647-0.454-0.97
			c-0.047-0.098-0.093-0.196-0.141-0.294c-0.178-0.368-0.36-0.736-0.545-1.102c-0.027-0.05-0.053-0.101-0.08-0.152
			c-0.207-0.403-0.418-0.806-0.634-1.204c-0.008-0.014-0.015-0.029-0.023-0.043c-1.045-1.922-2.191-3.78-3.432-5.567l-26.463,26.463
			c0.602,1.774,0.994,3.601,1.185,5.444h0.141h35.806C311.478,132.572,311.473,132.394,311.464,132.218z"/>
		<path fill="#6BA43A" d="M275.678,135.182c0,0.406-0.038,0.81-0.058,1.216c-0.02,0.406-0.026,0.812-0.066,1.216
			c-0.464,4.669-2.265,9.23-5.407,13.061c-0.255,0.311-0.544,0.603-0.817,0.904c-0.272,0.301-0.526,0.613-0.816,0.903l25.356,25.355
			c0.288-0.288,0.56-0.586,0.841-0.879c0.281-0.293,0.567-0.582,0.841-0.879c1.876-2.032,3.591-4.158,5.136-6.368
			c0.062-0.087,0.12-0.174,0.18-0.261c0.189-0.271,0.372-0.545,0.556-0.818c0.161-0.244,0.323-0.489,0.481-0.736
			c0.078-0.118,0.155-0.24,0.231-0.359c5.815-9.131,8.927-19.483,9.345-29.924c0.016-0.405,0.024-0.811,0.032-1.216
			c0.008-0.405,0.021-0.81,0.021-1.216H275.678z"/>
	</g>
	<path fill="#424143" d="M322.187,64.211c-6.56-6.56-17.197-6.56-23.757,0c-5.234,5.233-6.279,13.055-3.163,19.337l-36.592,36.593
		c-6.283-3.115-14.104-2.07-19.339,3.162c-6.561,6.56-6.559,17.198-0.001,23.758c6.562,6.561,17.199,6.559,23.76-0.001
		c5.233-5.233,6.278-13.055,3.161-19.338l36.592-36.591c6.283,3.116,14.104,2.07,19.338-3.163
		C328.746,81.409,328.746,70.771,322.187,64.211z"/>
</g>
<g>
	<g>
		<path fill="#6BA43A" d="M134.391,300.709v-22.012h3.862v22.012H134.391z"/>
		<path fill="#6BA43A" d="M167.687,300.709l-11.485-15.742v15.742h-3.861v-22.012h3.96l11.254,15.246v-15.246h3.86v22.012H167.687z"
			/>
		<path fill="#6BA43A" d="M185.505,300.709v-22.012h3.861v22.012H185.505z"/>
		<path fill="#6BA43A" d="M208.702,300.709v-18.613h-6.667v-3.399h17.194v3.399h-6.665v18.613H208.702z"/>
		<path fill="#6BA43A" d="M231.898,300.709v-22.012h3.861v22.012H231.898z"/>
		<path fill="#6BA43A" d="M265.295,300.709l-1.619-4.258h-10.098l-1.618,4.258h-4.389l8.648-22.012h4.817l8.646,22.012H265.295z
			 M258.628,282.558l-3.961,10.495h7.92L258.628,282.558z"/>
		<path fill="#6BA43A" d="M284.563,300.709v-18.613h-6.668v-3.399h17.195v3.399h-6.665v18.613H284.563z"/>
		<path fill="#6BA43A" d="M307.761,300.709v-22.012h3.861v22.012H307.761z"/>
		<path fill="#6BA43A" d="M332.082,300.709l-8.648-22.012h4.39l6.667,17.787l6.667-17.787h4.387l-8.645,22.012H332.082z"/>
		<path fill="#6BA43A" d="M357.322,300.709v-22.012h15.081v3.399h-11.219v5.676h10.989v3.399h-10.989v6.138h11.219v3.4H357.322z"/>
	</g>
	<g>
		<path fill="#424143" d="M131.597,246.726c0-11.906,8.707-20.435,20.672-20.435c11.905,0,20.612,8.53,20.612,20.435
			c0,11.905-8.707,20.436-20.612,20.436C140.304,267.162,131.597,258.632,131.597,246.726z M164.234,246.726
			c0-7.404-4.679-12.972-11.964-12.972c-7.345,0-12.025,5.568-12.025,12.972c0,7.344,4.679,12.972,12.025,12.972
			C159.555,259.698,164.234,254.071,164.234,246.726z"/>
		<path fill="#424143" d="M177.32,266.45v-39.508h18.482c8.587,0,13.268,5.804,13.268,12.735c0,6.871-4.739,12.676-13.268,12.676
			h-10.07v14.097H177.32z M200.48,239.678c0-3.317-2.547-5.331-5.864-5.331h-8.884v10.602h8.884
			C197.934,244.949,200.48,242.936,200.48,239.678z"/>
		<path fill="#424143" d="M212.856,266.45v-39.508h27.958v7.404h-19.546v8.292H240.4v7.404h-19.132v9.003h19.546v7.404H212.856z"/>
		<path fill="#424143" d="M273.151,266.45l-18.834-25.766v25.766h-8.413v-39.508h8.649l18.302,24.819v-24.819h8.411v39.508H273.151z
			"/>
		<path fill="#424143" d="M316.731,266.45l-2.489-6.693h-16.939l-2.487,6.693h-9.537l15.223-39.508h10.545l15.221,39.508H316.731z
			 M305.772,235.354l-6.159,17h12.322L305.772,235.354z"/>
		<path fill="#424143" d="M328.455,266.45v-39.508h18.481c8.587,0,13.268,5.804,13.268,12.735c0,6.871-4.74,12.676-13.268,12.676
			h-10.07v14.097H328.455z M351.615,239.678c0-3.317-2.547-5.331-5.865-5.331h-8.885v10.602h8.885
			C349.068,244.949,351.615,242.936,351.615,239.678z"/>
		<path fill="#424143" d="M363.991,266.45v-39.508h8.412v39.508H363.991z"/>
	</g>
</g>
</svg>
