<svg id="Layer_1" data-name="Layer 1" xmlns="http://www.w3.org/2000/svg" viewBox="0 0 422.05 112.01"><defs><style>.cls-1{fill:#939598;}.cls-2{fill:#414042;}.cls-3{fill:#6d6e71;}.cls-4{fill:#231f20;}</style></defs><title>OpenAPI_Black</title><path class="cls-1" d="M71.13,189.07H41.57c0,0.14,0,.29,0,0.43s0,0.56,0,.83c0,0.12,0,.24,0,0.36,0,0.32.05,0.64,0.08,1l0,0.22q0.05,0.53.12,1.07s0,0.07,0,.1c0,0.38.1,0.76,0.15,1.14h0a49.48,49.48,0,0,0,1.53,7v0c0.11,0.36.22,0.72,0.33,1.08l0,0.06,0,0.06c0.1,0.32.21,0.64,0.33,1l0.09,0.24,0.3,0.84,0.14,0.38,0.27,0.69L45.29,206l0.23,0.54,0.29,0.66L46,207.64l0.37,0.79,0.12,0.25,0.44,0.9L47,209.71l0.52,1,0,0,0.12,0.2,25.24-15.21,0.09-.06A20.07,20.07,0,0,1,71.13,189.07Z" transform="translate(-41.53 -124.66)"/><polygon class="cls-1" points="1.44 77.96 1.45 77.99 2.4 77.69 1.44 77.96"/><path class="cls-2" d="M78.39,202.64l-0.07.07L57.5,223.53l0.32,0.3,0.59,0.52,0.3,0.27,0.71,0.6,0.19,0.16L60.43,226l0.1,0.08,0.89,0.69,0,0q1.88,1.41,3.89,2.63l0.14,0.08L66.27,230l0.47,0.27,0.45,0.25L68,231,68.11,231c0.76,0.4,1.53.76,2.3,1.12h0l0.74-1.79,10.47-25.43,0-.09A20,20,0,0,1,78.39,202.64Z" transform="translate(-41.53 -124.66)"/><path class="cls-3" d="M76.23,200.56c-0.22-.25-0.44-0.51-0.65-0.77s-0.37-.46-0.54-0.7-0.39-.54-0.58-0.82-0.37-.56-0.54-0.84L48.64,212.67c0.39,0.64.79,1.27,1.21,1.89l0,0.07h0v0l0,0.06h0l0.1,0.15h0q0.66,1,1.35,1.91l0,0,0,0,0.61,0.8,0.08,0.1,0.65,0.81L53,218.77l0.6,0.71,0.27,0.3,0.52,0.59,0.3,0.32,0.13,0.15,0.39,0.42,0.16,0.16,0.7,0.72,20.85-20.85C76.67,201.06,76.45,200.81,76.23,200.56Z" transform="translate(-41.53 -124.66)"/><path class="cls-2" d="M103.86,202.63l-0.7.54,0.05,0.09,15.2,25.23c0.7-.46,1.4-0.93,2.08-1.43a50.34,50.34,0,0,0,4.27-3.53l-20.82-20.82Z" transform="translate(-41.53 -124.66)"/><path class="cls-1" d="M116.5,229.69l0,0h0l0,0h0Z" transform="translate(-41.53 -124.66)"/><circle class="cls-1" cx="116.49" cy="229.7" transform="translate(-171.88 178.55) rotate(-79.7)"/><path class="cls-1" d="M116.53,229.67h0l0.2-.11h0Z" transform="translate(-41.53 -124.66)"/><polygon class="cls-1" points="74.96 105.03 74.97 105.03 74.97 105.03 74.96 105.03"/><polygon class="cls-1" points="74.95 105.04 74.96 105.04 74.92 104.98 74.95 105.04"/><path class="cls-1" d="M116.5,229.69h0l0,0h0Z" transform="translate(-41.53 -124.66)"/><polygon class="cls-1" points="74.94 105.05 74.94 105.05 74.95 105.04 74.95 105.04 74.94 105.05"/><circle class="cls-1" cx="116.48" cy="229.7" transform="translate(-152.2 -16.34) rotate(-34.99)"/><path class="cls-1" d="M116.49,229.7h0Z" transform="translate(-41.53 -124.66)"/><path class="cls-1" d="M116.53,229.67l0.2-.11-0.2.11h0Z" transform="translate(-41.53 -124.66)"/><polygon class="cls-1" points="75.2 104.9 75.2 104.89 75.2 104.89 75.2 104.9"/><rect class="cls-1" x="116.47" y="229.71" transform="translate(-149.39 -21.47) rotate(-33.69)"/><polygon class="cls-1" points="74.93 105.05 74.94 105.05 74.94 105.05 74.93 105.05"/><polygon class="cls-1" points="74.94 105.05 74.94 105.05 74.94 105.05 74.94 105.05 74.94 105.05 74.94 105.05"/><path class="cls-1" d="M116.21,228.7l-0.52-.86-14.19-23.56c-0.29.17-.58,0.33-0.87,0.49s-0.59.31-.9,0.45a20.06,20.06,0,0,1-14.37,1.12c-0.32-.1-0.63-0.22-0.94-0.33s-0.63-.21-0.94-0.33L73,231.08l-0.41,1-0.35.85h0l0.08,0,0.09,0h0l0.74,0.28,0.93,0.36,0.48,0.18h0a49.91,49.91,0,0,0,10.12,2.42l0.4,0.05,0.42,0,0.8,0.09,0.2,0,1,0.08,0.33,0,0.86,0.05,0.53,0,0.68,0h1.22a49.79,49.79,0,0,0,8.23-.69h0l0.14,0,0.86-.16,0.49-.09,0.51-.11,0.84-.18,0.15,0a49.88,49.88,0,0,0,11.9-4.44h0l0.73-.41,0.87-.49,0.6-.34h0l0-.06,0,0.06h0l0,0,0.2-.12h0Z" transform="translate(-41.53 -124.66)"/><path class="cls-1" d="M78.41,171.51l0.7-.54-0.05-.09-15.2-25.23c-0.71.46-1.4,0.94-2.09,1.44a49.66,49.66,0,0,0-4.26,3.52l20.82,20.82Z" transform="translate(-41.53 -124.66)"/><path class="cls-2" d="M56.06,152c-0.24.24-.46,0.48-0.69,0.72l-0.69.72a49.73,49.73,0,0,0-4.21,5.22l-0.18.26-0.42.62-0.43.66-0.16.24a49.48,49.48,0,0,0-7.7,24.63c0,0.33,0,.67,0,1s0,0.67,0,1H71c0-.33,0-0.67,0-1s0-.67.05-1a20,20,0,0,1,4.45-10.74c0.21-.26.45-0.5,0.67-0.74s0.43-.5.67-0.74Z" transform="translate(-41.53 -124.66)"/><path class="cls-2" d="M116.9,144.67l-0.12-.07-0.78-.47-0.46-.26-0.46-.26-0.8-.43-0.13-.07a49.28,49.28,0,0,0-5.32-2.39l-0.14-.05-1.19-.43a49.8,49.8,0,0,0-9.94-2.36l-0.41-.06-0.41,0-0.8-.09-0.22,0-1-.08-0.37,0-0.82,0-0.43,0v29.56a20.53,20.53,0,0,1,4.48,1l21.75-21.75C118.56,145.73,117.74,145.19,116.9,144.67Z" transform="translate(-41.53 -124.66)"/><polygon class="cls-3" points="24.53 20.78 24.01 19.92 24.01 19.92 24.53 20.78 24.53 20.78"/><polygon class="cls-3" points="24.01 19.92 24.01 19.92 24.01 19.92 24.01 19.92"/><path class="cls-3" d="M90.14,137.49l-1,0a50,50,0,0,0-6.23.64l-0.14,0-0.86.16-0.49.09-0.51.11-0.84.18h0l-0.15,0A49.9,49.9,0,0,0,68,143.19h0l-0.73.41-0.87.49-0.65.37h0l0,0-0.17.1h0l0.52,0.86h0l14.71,24.41c0.29-.17.58-0.33,0.87-0.49s0.59-.31.9-0.45a20.07,20.07,0,0,1,6.6-1.85l1-.08c0.33,0,.67,0,1,0V137.46Z" transform="translate(-41.53 -124.66)"/><path class="cls-2" d="M140.68,184.63c0-.26,0-0.53,0-0.79s0-.26,0-0.4c0-.31,0-0.62-0.08-0.93,0-.08,0-0.16,0-0.24q-0.05-.52-0.11-1V181.1q-0.07-.56-0.15-1.12v0a49.56,49.56,0,0,0-1.52-7v0q-0.16-.53-0.33-1.06l0-.14c-0.1-.32-0.21-0.64-0.32-1l-0.09-.26-0.3-.82-0.15-.39-0.27-.68-0.22-.53-0.22-.53-0.29-.67-0.17-.38-0.37-.8-0.12-.24-0.45-.91-0.07-.13-0.52-1,0,0a49.49,49.49,0,0,0-2.82-4.58l-21.76,21.76a20.51,20.51,0,0,1,1,4.48H140.7C140.69,184.92,140.69,184.78,140.68,184.63Z" transform="translate(-41.53 -124.66)"/><path class="cls-3" d="M111.25,187.07c0,0.33,0,.67,0,1s0,0.67-.05,1a20,20,0,0,1-4.45,10.74c-0.21.26-.45,0.5-0.67,0.74s-0.43.5-.67,0.74l20.85,20.85c0.24-.24.46-0.48,0.69-0.72l0.69-.72a49.8,49.8,0,0,0,4.22-5.24l0.15-.21,0.46-.67,0.4-.61,0.19-.3a49.46,49.46,0,0,0,7.68-24.61c0-.33,0-0.67,0-1s0-.67,0-1H111.25Z" transform="translate(-41.53 -124.66)"/><path class="cls-4" d="M149.5,128.71a13.81,13.81,0,0,0-22.14,15.9L97.27,174.7a13.81,13.81,0,1,0,6.23,6.23l30.09-30.09A13.81,13.81,0,0,0,149.5,128.71Z" transform="translate(-41.53 -124.66)"/><path class="cls-4" d="M155.91,176.39c0-14.78,10.81-25.37,25.67-25.37s25.59,10.59,25.59,25.37-10.81,25.37-25.59,25.37S155.91,191.17,155.91,176.39Zm40.52,0c0-9.19-5.81-16.11-14.86-16.11s-14.93,6.91-14.93,16.11,5.81,16.11,14.93,16.11S196.44,185.51,196.44,176.39Z" transform="translate(-41.53 -124.66)"/><path class="cls-4" d="M212.68,200.88V151.82h22.95c10.66,0,16.47,7.21,16.47,15.81s-5.88,15.74-16.47,15.74h-12.5v17.5H212.68Zm28.76-33.24c0-4.12-3.16-6.62-7.28-6.62h-11v13.16h11C238.28,174.18,241.44,171.68,241.44,167.64Z" transform="translate(-41.53 -124.66)"/><path class="cls-4" d="M256.81,200.88V151.82h34.72V161H267.25v10.3H291v9.19H267.25v11.18h24.27v9.19H256.81Z" transform="translate(-41.53 -124.66)"/><path class="cls-4" d="M331.68,200.88l-23.39-32v32H297.84V151.82h10.74l22.73,30.82V151.82h10.44v49.06H331.68Z" transform="translate(-41.53 -124.66)"/><path class="cls-4" d="M394.45,200.88l-3.09-8.31h-21l-3.09,8.31H355.4l18.9-49.06h13.09l18.9,49.06H394.45Zm-13.61-38.61-7.65,21.11h15.3Z" transform="translate(-41.53 -124.66)"/><path class="cls-4" d="M409,200.88V151.82H432c10.66,0,16.47,7.21,16.47,15.81s-5.89,15.74-16.47,15.74h-12.5v17.5H409Zm28.76-33.24c0-4.12-3.16-6.62-7.28-6.62h-11v13.16h11C434.61,174.18,437.77,171.68,437.77,167.64Z" transform="translate(-41.53 -124.66)"/><path class="cls-4" d="M453.14,200.88V151.82h10.44v49.06H453.14Z" transform="translate(-41.53 -124.66)"/><path class="cls-3" d="M286.77,232.44V216.09h2.87v16.35h-2.87Z" transform="translate(-41.53 -124.66)"/><path class="cls-3" d="M311.5,232.44L303,220.74v11.69H300.1V216.09H303l8.36,11.33V216.09h2.87v16.35H311.5Z" transform="translate(-41.53 -124.66)"/><path class="cls-3" d="M324.74,232.44V216.09h2.87v16.35h-2.87Z" transform="translate(-41.53 -124.66)"/><path class="cls-3" d="M342,232.44V218.61h-5v-2.52h12.77v2.52h-5v13.83H342Z" transform="translate(-41.53 -124.66)"/><path class="cls-3" d="M359.2,232.44V216.09h2.87v16.35H359.2Z" transform="translate(-41.53 -124.66)"/><path class="cls-3" d="M384,232.44l-1.2-3.16h-7.5l-1.2,3.16h-3.26l6.42-16.35h3.58l6.42,16.35H384Zm-5-13.48-2.94,7.8H382Z" transform="translate(-41.53 -124.66)"/><path class="cls-3" d="M398.33,232.44V218.61h-5v-2.52h12.77v2.52h-5v13.83h-2.87Z" transform="translate(-41.53 -124.66)"/><path class="cls-3" d="M415.56,232.44V216.09h2.87v16.35h-2.87Z" transform="translate(-41.53 -124.66)"/><path class="cls-3" d="M433.63,232.44l-6.42-16.35h3.26l5,13.21,5-13.21h3.26l-6.42,16.35h-3.58Z" transform="translate(-41.53 -124.66)"/><path class="cls-3" d="M452.38,232.44V216.09h11.2v2.52h-8.33v4.22h8.16v2.52h-8.16v4.56h8.33v2.53h-11.2Z" transform="translate(-41.53 -124.66)"/></svg>