<?xml version="1.0" encoding="utf-8"?>
<!-- Generator: Adobe Illustrator 22.0.1, SVG Export Plug-In . SVG Version: 6.00 Build 0)  -->
<svg version="1.1" id="Layer_1" xmlns="http://www.w3.org/2000/svg" xmlns:xlink="http://www.w3.org/1999/xlink" x="0px" y="0px"
	 viewBox="0 0 504 360" enable-background="new 0 0 504 360" xml:space="preserve">
<g>
	<path opacity="0.6" fill="#FFFFFF" d="M74.909,189.069h-0.113l-29.444,0c0.005,0.144,0.009,0.289,0.017,0.433
		c0.012,0.278,0.032,0.555,0.049,0.833c0.008,0.119,0.013,0.238,0.022,0.356c0.023,0.322,0.051,0.642,0.08,0.962
		c0.007,0.073,0.013,0.145,0.02,0.215c0.034,0.356,0.073,0.712,0.115,1.065c0.002,0.035,0.006,0.069,0.011,0.103
		c0.046,0.382,0.095,0.764,0.151,1.144c0,0.004,0.001,0.01,0.003,0.014c0.339,2.356,0.848,4.69,1.527,6.984
		c0.003,0.01,0.007,0.019,0.009,0.029c0.106,0.361,0.218,0.72,0.333,1.077c0.007,0.021,0.014,0.042,0.02,0.063
		s0.013,0.042,0.02,0.063c0.105,0.323,0.215,0.645,0.325,0.968c0.029,0.081,0.056,0.163,0.086,0.244
		c0.099,0.279,0.2,0.558,0.304,0.837c0.048,0.126,0.096,0.251,0.143,0.378c0.09,0.231,0.179,0.46,0.27,0.691
		c0.069,0.173,0.141,0.346,0.213,0.519c0.074,0.18,0.15,0.359,0.226,0.54c0.094,0.22,0.192,0.439,0.289,0.658
		c0.058,0.131,0.117,0.261,0.175,0.391c0.12,0.263,0.244,0.526,0.368,0.787c0.041,0.084,0.08,0.168,0.122,0.252
		c0.145,0.301,0.293,0.599,0.443,0.895c0.025,0.046,0.047,0.091,0.07,0.137c0.169,0.328,0.341,0.656,0.518,0.981
		c0.008,0.014,0.016,0.028,0.023,0.044c0.037,0.068,0.078,0.133,0.115,0.2l25.243-15.207l0.093-0.056
		C75.759,193.57,75.139,191.338,74.909,189.069z"/>
	<polygon fill="#939598" points="46.748,202.623 46.757,202.649 47.71,202.349 	"/>
	<path opacity="0.9" fill="#FFFFFF" d="M82.173,202.638l-0.071,0.071l-20.819,20.82c0.107,0.1,0.213,0.201,0.323,0.298
		c0.194,0.176,0.392,0.351,0.589,0.523c0.102,0.091,0.202,0.181,0.304,0.269c0.236,0.204,0.474,0.403,0.711,0.602
		c0.065,0.054,0.128,0.107,0.192,0.16c0.267,0.221,0.539,0.438,0.812,0.654c0.035,0.027,0.07,0.055,0.105,0.083
		c0.295,0.232,0.593,0.458,0.894,0.686c0.013,0.008,0.024,0.016,0.034,0.025c1.254,0.937,2.554,1.815,3.895,2.633
		c0.046,0.029,0.092,0.056,0.139,0.085c0.255,0.153,0.51,0.304,0.767,0.453c0.157,0.09,0.314,0.179,0.471,0.268
		c0.148,0.086,0.296,0.168,0.446,0.251c0.27,0.148,0.542,0.295,0.814,0.439c0.037,0.02,0.075,0.04,0.113,0.06
		c0.757,0.396,1.527,0.764,2.303,1.118l0,0l0.739-1.794l10.471-25.429l0.039-0.094C84.3,204.207,83.204,203.482,82.173,202.638z"/>
	<path opacity="0.75" fill="#FFFFFF" d="M80.005,200.564c-0.225-0.25-0.439-0.506-0.649-0.765c-0.186-0.23-0.366-0.462-0.54-0.697
		c-0.199-0.27-0.394-0.541-0.578-0.818c-0.186-0.278-0.368-0.558-0.54-0.843l-25.275,15.226c0.388,0.645,0.793,1.273,1.206,1.894
		c0.014,0.021,0.027,0.044,0.041,0.065l0,0c0.005,0.008,0.01,0.015,0.015,0.023c0.014,0.02,0.026,0.042,0.04,0.063
		c0.001,0.002,0.003,0.004,0.004,0.006c0.033,0.05,0.067,0.098,0.101,0.148c0.002,0.003,0.004,0.006,0.006,0.009c0,0,0,0,0,0
		c0.001,0.001,0.002,0.003,0.003,0.004c0.439,0.649,0.89,1.288,1.355,1.91c0.01,0.013,0.021,0.027,0.031,0.04
		c0.01,0.013,0.02,0.026,0.03,0.039c0.202,0.268,0.405,0.535,0.614,0.8c0.027,0.035,0.054,0.069,0.083,0.103
		c0.214,0.274,0.432,0.544,0.654,0.812c0.052,0.063,0.106,0.127,0.158,0.191c0.2,0.239,0.4,0.477,0.604,0.713
		c0.087,0.101,0.178,0.202,0.266,0.302c0.174,0.198,0.346,0.395,0.524,0.59c0.097,0.107,0.198,0.215,0.297,0.322
		c0.045,0.049,0.089,0.097,0.135,0.146c0.13,0.14,0.259,0.28,0.39,0.419c0.052,0.055,0.107,0.109,0.16,0.164
		c0.23,0.24,0.462,0.48,0.699,0.716l20.85-20.85C80.45,201.057,80.226,200.811,80.005,200.564z"/>
	<path opacity="0.9" fill="#FFFFFF" d="M107.642,202.627c-0.229,0.185-0.461,0.366-0.697,0.54l0.052,0.087l15.202,25.235
		c0.704-0.46,1.4-0.934,2.08-1.432c1.471-1.085,2.895-2.261,4.267-3.527l-20.821-20.821L107.642,202.627z"/>
	<path fill="#939598" d="M120.278,229.691c0.011-0.006,0.023-0.013,0.034-0.019l-0.001-0.001
		C120.3,229.677,120.289,229.684,120.278,229.691L120.278,229.691z"/>
	<polygon fill="#939598" points="120.264,229.7 120.264,229.699 120.264,229.699 120.263,229.699 	"/>
	<path fill="#939598" d="M120.311,229.671l0.001,0.001c0.066-0.037,0.133-0.072,0.199-0.111l-0.004-0.007
		C120.441,229.593,120.376,229.632,120.311,229.671z"/>
	<polygon fill="#939598" points="120.269,229.695 120.278,229.691 120.278,229.69 	"/>
	<polygon fill="#939598" points="120.263,229.699 120.264,229.699 120.227,229.636 	"/>
	<path fill="#939598" d="M120.278,229.691L120.278,229.691c0.012-0.006,0.023-0.012,0.034-0.018l0,0
		C120.301,229.678,120.289,229.684,120.278,229.691z"/>
	<polygon fill="#939598" points="120.25,229.707 120.25,229.707 120.259,229.702 120.259,229.702 	"/>
	<polygon fill="#939598" points="120.263,229.699 120.259,229.702 120.259,229.702 120.264,229.7 	"/>
	<path fill="#939598" d="M120.269,229.695c-0.002,0.001-0.004,0.002-0.006,0.003l0,0c0.005-0.003,0.01-0.005,0.015-0.008l0-0.001
		C120.275,229.692,120.272,229.694,120.269,229.695z"/>
	<path fill="#939598" d="M120.312,229.672c0.066-0.039,0.133-0.072,0.198-0.112C120.445,229.6,120.378,229.635,120.312,229.672
		L120.312,229.672z"/>
	<polygon fill="#939598" points="120.511,229.56 120.507,229.554 120.506,229.554 	"/>
	
		<rect x="120.25" y="229.707" transform="matrix(0.8321 -0.5547 0.5547 0.8321 -107.2225 105.2821)" fill="#939598" width="0" height="0"/>
	<polygon fill="#939598" points="120.242,229.712 120.243,229.711 120.244,229.711 	"/>
	<polygon fill="#939598" points="120.25,229.707 120.244,229.711 120.244,229.711 120.25,229.707 120.25,229.707 	"/>
	<path opacity="0.6" fill="#FFFFFF" d="M119.99,228.696l-0.516-0.856l-14.19-23.555c-0.287,0.173-0.581,0.329-0.874,0.487
		c-0.296,0.159-0.594,0.308-0.896,0.451c-2.726,1.293-5.677,1.953-8.632,1.953c-1.936,0-3.871-0.28-5.742-0.838
		c-0.319-0.095-0.63-0.22-0.945-0.332c-0.315-0.111-0.634-0.207-0.944-0.335l-10.464,25.412l-0.41,0.996l-0.351,0.853l-0.002,0.004
		c0.027,0.011,0.055,0.02,0.082,0.031c0.029,0.012,0.057,0.021,0.086,0.033l0.001,0c0.001,0,0.002,0.001,0.002,0.001
		c0.007,0.003,0.014,0.005,0.02,0.008c0.247,0.101,0.496,0.188,0.744,0.285c0.311,0.121,0.622,0.244,0.934,0.358
		c0.159,0.058,0.317,0.126,0.476,0.182l0.001,0l0,0c3.278,1.158,6.67,1.968,10.119,2.422c0.135,0.016,0.269,0.035,0.404,0.054
		c0.141,0.016,0.283,0.03,0.424,0.046c0.266,0.03,0.531,0.061,0.798,0.087c0.066,0.005,0.132,0.011,0.198,0.017
		c0.327,0.031,0.654,0.059,0.979,0.082c0.111,0.008,0.223,0.013,0.333,0.021c0.287,0.019,0.572,0.037,0.858,0.05
		c0.175,0.01,0.35,0.015,0.526,0.021c0.227,0.008,0.453,0.017,0.682,0.024c0.327,0.008,0.657,0.011,0.986,0.012
		c0.078,0,0.155,0.002,0.232,0.003c2.755,0,5.509-0.229,8.233-0.686h0c0.046-0.007,0.091-0.015,0.138-0.021
		c0.288-0.05,0.576-0.104,0.864-0.157c0.164-0.032,0.329-0.063,0.491-0.095c0.168-0.035,0.337-0.07,0.505-0.106
		c0.281-0.059,0.561-0.12,0.842-0.185c0.05-0.011,0.101-0.021,0.152-0.035c4.141-0.965,8.14-2.459,11.897-4.436l0.001-0.001l0,0
		c0.246-0.13,0.486-0.278,0.731-0.411c0.292-0.16,0.582-0.325,0.872-0.491c0.201-0.115,0.404-0.221,0.603-0.34
		c0,0,0.001-0.001,0.001-0.001c0.002-0.001,0.004-0.003,0.006-0.004c0,0,0,0,0.001,0l0,0c0.003-0.002,0.006-0.003,0.009-0.005
		c0.002-0.001,0.003-0.002,0.004-0.003l-0.037-0.063l0.037,0.063c0.002-0.001,0.004-0.002,0.006-0.003
		c0.003-0.002,0.006-0.003,0.009-0.005c0.011-0.007,0.022-0.013,0.033-0.02c0.065-0.039,0.13-0.078,0.195-0.117l0,0L119.99,228.696z
		"/>
	<path opacity="0.6" fill="#FFFFFF" d="M82.185,171.512c0.23-0.186,0.462-0.366,0.697-0.54l-0.052-0.087l-15.201-25.235
		c-0.706,0.461-1.404,0.936-2.085,1.436c-1.47,1.082-2.893,2.257-4.262,3.522l20.821,20.821L82.185,171.512z"/>
	<path opacity="0.9" fill="#FFFFFF" d="M59.838,151.994c-0.237,0.237-0.461,0.482-0.692,0.722c-0.231,0.24-0.466,0.479-0.692,0.723
		c-1.538,1.665-2.944,3.409-4.212,5.22c-0.061,0.085-0.122,0.174-0.182,0.261c-0.143,0.208-0.284,0.416-0.423,0.625
		c-0.145,0.217-0.289,0.437-0.429,0.656c-0.053,0.08-0.105,0.161-0.156,0.241c-4.789,7.513-7.355,16.034-7.7,24.627
		c-0.013,0.333-0.02,0.667-0.027,1c-0.007,0.333-0.017,0.667-0.017,1l29.488,0c0-0.334,0.031-0.666,0.048-1
		c0.017-0.334,0.022-0.668,0.055-1c0.381-3.84,1.863-7.589,4.447-10.739c0.21-0.256,0.447-0.496,0.672-0.743
		c0.224-0.247,0.432-0.504,0.671-0.742L59.838,151.994z"/>
	<path opacity="0.9" fill="#FFFFFF" d="M120.681,144.675c-0.04-0.025-0.082-0.049-0.122-0.073c-0.259-0.159-0.521-0.312-0.783-0.465
		c-0.152-0.088-0.304-0.173-0.457-0.26c-0.154-0.086-0.306-0.172-0.461-0.256c-0.266-0.146-0.533-0.29-0.801-0.432
		c-0.042-0.021-0.083-0.044-0.126-0.066c-1.729-0.904-3.505-1.7-5.318-2.391c-0.046-0.019-0.094-0.037-0.141-0.054
		c-0.395-0.148-0.791-0.295-1.19-0.433c-3.221-1.125-6.552-1.914-9.936-2.358c-0.138-0.019-0.277-0.038-0.415-0.056
		c-0.139-0.017-0.277-0.031-0.415-0.046c-0.267-0.031-0.533-0.061-0.801-0.087c-0.074-0.007-0.149-0.012-0.224-0.02
		c-0.317-0.029-0.636-0.057-0.953-0.08c-0.123-0.009-0.248-0.016-0.371-0.023c-0.272-0.018-0.547-0.037-0.819-0.049
		c-0.146-0.008-0.29-0.012-0.434-0.017l-0.001,29.444v0.115c1.517,0.157,3.02,0.48,4.478,0.975l21.754-21.754
		C122.338,145.729,121.521,145.185,120.681,144.675z"/>
	<polygon fill="#6D6E71" points="69.837,145.441 69.321,144.585 69.321,144.585 69.837,145.441 	"/>
	<polygon fill="#6D6E71" points="69.318,144.579 69.321,144.585 69.321,144.585 	"/>
	<path opacity="0.75" fill="#FFFFFF" d="M93.914,137.485c-0.333,0.007-0.667,0.008-1,0.021c-2.086,0.084-4.168,0.297-6.233,0.643
		c-0.045,0.008-0.09,0.015-0.136,0.023c-0.29,0.05-0.577,0.103-0.865,0.157c-0.163,0.031-0.327,0.061-0.49,0.094
		c-0.17,0.034-0.339,0.069-0.508,0.106c-0.28,0.058-0.56,0.119-0.84,0.184h0c-0.051,0.011-0.101,0.023-0.153,0.034
		c-4.141,0.966-8.142,2.461-11.898,4.438c0,0,0,0,0,0l-0.001,0c-0.245,0.13-0.484,0.277-0.728,0.411
		c-0.292,0.16-0.582,0.325-0.872,0.491c-0.215,0.124-0.434,0.238-0.648,0.366c-0.002,0.001-0.005,0.003-0.007,0.004
		c0,0-0.001,0-0.001,0c-0.015,0.009-0.03,0.017-0.045,0.026c-0.056,0.034-0.114,0.062-0.17,0.096l0.003,0.005l0.516,0.857h0
		l14.705,24.412c0.287-0.173,0.581-0.33,0.874-0.487c0.295-0.159,0.594-0.308,0.895-0.451c2.1-1,4.332-1.62,6.601-1.85
		c0.333-0.034,0.666-0.062,1-0.079c0.333-0.017,0.666-0.034,1-0.034l0.001-29.487C94.58,137.465,94.247,137.479,93.914,137.485z"/>
	<path opacity="0.9" fill="#FFFFFF" d="M144.458,184.631c-0.014-0.265-0.03-0.529-0.048-0.795c-0.008-0.132-0.015-0.263-0.026-0.397
		c-0.022-0.311-0.048-0.623-0.077-0.934c-0.006-0.081-0.014-0.161-0.021-0.242c-0.034-0.348-0.071-0.696-0.111-1.043
		c-0.004-0.028-0.007-0.056-0.01-0.084c-0.002-0.013-0.003-0.027-0.005-0.04c-0.046-0.375-0.096-0.75-0.149-1.124
		c-0.001-0.011-0.002-0.025-0.005-0.035c-0.339-2.351-0.847-4.681-1.524-6.972c-0.005-0.016-0.009-0.03-0.014-0.044
		c-0.107-0.356-0.216-0.71-0.328-1.063c-0.015-0.046-0.031-0.093-0.045-0.14c-0.105-0.319-0.211-0.636-0.321-0.954
		c-0.031-0.085-0.061-0.171-0.091-0.258c-0.097-0.275-0.197-0.549-0.299-0.823c-0.049-0.131-0.099-0.261-0.15-0.391
		c-0.086-0.227-0.175-0.454-0.265-0.678c-0.072-0.18-0.144-0.357-0.218-0.534c-0.072-0.176-0.146-0.35-0.22-0.526
		c-0.097-0.224-0.195-0.448-0.294-0.671c-0.056-0.125-0.112-0.252-0.17-0.378c-0.122-0.266-0.247-0.532-0.373-0.797
		c-0.039-0.08-0.077-0.162-0.116-0.242c-0.147-0.303-0.296-0.606-0.448-0.906c-0.022-0.041-0.043-0.083-0.065-0.125
		c-0.17-0.331-0.344-0.663-0.521-0.99c-0.007-0.011-0.012-0.024-0.019-0.035c-0.859-1.58-1.802-3.108-2.822-4.578l-21.761,21.762
		c0.495,1.459,0.817,2.961,0.974,4.477h0.116h29.444C144.469,184.922,144.465,184.776,144.458,184.631z"/>
	<path opacity="0.75" fill="#FFFFFF" d="M115.03,187.069c0,0.334-0.031,0.666-0.048,1c-0.016,0.334-0.022,0.668-0.055,1
		c-0.381,3.84-1.863,7.59-4.446,10.74c-0.21,0.256-0.447,0.496-0.672,0.743c-0.224,0.247-0.432,0.504-0.671,0.742l20.851,20.85
		c0.237-0.237,0.46-0.482,0.691-0.723c0.231-0.241,0.466-0.479,0.691-0.723c1.543-1.671,2.953-3.419,4.224-5.236
		c0.051-0.072,0.099-0.143,0.148-0.214c0.155-0.223,0.306-0.448,0.458-0.673c0.133-0.201,0.266-0.402,0.395-0.605
		c0.064-0.097,0.128-0.198,0.19-0.295c4.782-7.509,7.341-16.021,7.685-24.607c0.013-0.333,0.02-0.667,0.027-1
		c0.007-0.333,0.017-0.666,0.017-1H115.03z"/>
	<path fill="#FFFFFF" d="M153.276,128.706c-5.395-5.395-14.142-5.395-19.536,0c-4.304,4.303-5.164,10.736-2.601,15.902
		L101.048,174.7c-5.166-2.562-11.599-1.703-15.903,2.6c-5.395,5.395-5.394,14.142,0,19.537c5.396,5.395,14.143,5.393,19.538-0.001
		c4.303-4.303,5.162-10.736,2.599-15.903l30.091-30.091c5.167,2.562,11.599,1.703,15.902-2.601
		C158.67,142.849,158.67,134.101,153.276,128.706z"/>
	<g>
		<path fill="#FFFFFF" d="M281.877,232.439v-16.352h2.869v16.352H281.877z"/>
		<path fill="#FFFFFF" d="M306.612,232.439l-8.532-11.695v11.695h-2.869v-16.352h2.942l8.361,11.326v-11.326h2.867v16.352H306.612z"
			/>
		<path fill="#FFFFFF" d="M319.848,232.439v-16.352h2.869v16.352H319.848z"/>
		<path fill="#FFFFFF" d="M337.082,232.439v-13.827h-4.953v-2.525h12.773v2.525h-4.951v13.827H337.082z"/>
		<path fill="#FFFFFF" d="M354.314,232.439v-16.352h2.869v16.352H354.314z"/>
		<path fill="#FFFFFF" d="M379.123,232.439l-1.203-3.163h-7.501l-1.202,3.163h-3.261l6.424-16.352h3.578l6.423,16.352H379.123z
			 M374.171,218.955l-2.943,7.796h5.884L374.171,218.955z"/>
		<path fill="#FFFFFF" d="M393.437,232.439v-13.827h-4.953v-2.525h12.774v2.525h-4.952v13.827H393.437z"/>
		<path fill="#FFFFFF" d="M410.67,232.439v-16.352h2.869v16.352H410.67z"/>
		<path fill="#FFFFFF" d="M428.738,232.439l-6.425-16.352h3.261l4.953,13.214l4.953-13.214h3.259l-6.422,16.352H428.738z"/>
		<path fill="#FFFFFF" d="M447.489,232.439v-16.352h11.203v2.525h-8.335v4.216h8.163v2.525h-8.163v4.56h8.335v2.526H447.489z"/>
	</g>
	<g>
		<path fill="#FFFFFF" d="M159.689,176.389c0-14.783,10.811-25.374,25.668-25.374c14.782,0,25.594,10.591,25.594,25.374
			c0,14.782-10.811,25.375-25.594,25.375C170.501,201.764,159.689,191.172,159.689,176.389z M200.214,176.389
			c0-9.194-5.81-16.107-14.856-16.107c-9.121,0-14.931,6.913-14.931,16.107c0,9.119,5.81,16.107,14.931,16.107
			C194.404,192.496,200.214,185.509,200.214,176.389z"/>
		<path fill="#FFFFFF" d="M216.462,200.88v-49.056h22.948c10.663,0,16.474,7.207,16.474,15.812c0,8.531-5.885,15.74-16.474,15.74
			h-12.504v17.504H216.462z M245.22,167.637c0-4.119-3.162-6.619-7.282-6.619h-11.031v13.165h11.031
			C242.058,174.182,245.22,171.682,245.22,167.637z"/>
		<path fill="#FFFFFF" d="M260.587,200.88v-49.056h34.715v9.193h-24.27v10.297h23.756v9.194h-23.756v11.179h24.27v9.194H260.587z"/>
		<path fill="#FFFFFF" d="M335.454,200.88l-23.386-31.993v31.993h-10.446v-49.056h10.739l22.726,30.817v-30.817h10.444v49.056
			H335.454z"/>
		<path fill="#FFFFFF" d="M389.565,200.88l-3.09-8.311h-21.033l-3.089,8.311h-11.842l18.902-49.056h13.094l18.899,49.056H389.565z
			 M375.958,162.268l-7.648,21.108h15.299L375.958,162.268z"/>
		<path fill="#FFFFFF" d="M404.123,200.88v-49.056h22.947c10.663,0,16.474,7.207,16.474,15.812c0,8.531-5.886,15.74-16.474,15.74
			h-12.504v17.504H404.123z M432.88,167.637c0-4.119-3.162-6.619-7.282-6.619h-11.032v13.165h11.032
			C429.718,174.182,432.88,171.682,432.88,167.637z"/>
		<path fill="#FFFFFF" d="M448.247,200.88v-49.056h10.445v49.056H448.247z"/>
	</g>
</g>
</svg>
