<?xml version="1.0" encoding="utf-8"?>
<!-- Generator: Adobe Illustrator 26.5.0, SVG Export Plug-In . SVG Version: 6.00 Build 0)  -->
<svg version="1.1" id="Layer_1" xmlns="http://www.w3.org/2000/svg" xmlns:xlink="http://www.w3.org/1999/xlink" x="0px" y="0px"
	 viewBox="0 0 504 360" style="enable-background:new 0 0 504 360;" xml:space="preserve">
<style type="text/css">
	.st0{opacity:0.6;fill:#FFFFFF;}
	.st1{fill:#93D500;}
	.st2{opacity:0.9;fill:#FFFFFF;}
	.st3{opacity:0.8;fill:#FFFFFF;}
	.st4{fill:#6BA43A;}
	.st5{fill:#FFFFFF;}
	.st6{fill:#FFFFFF;stroke:#231F20;stroke-miterlimit:10;}
</style>
<g>
	<g>
		<path class="st0" d="M71.1,186.9H71l-29.4,0c0,0.1,0,0.3,0,0.4c0,0.3,0,0.6,0,0.8c0,0.1,0,0.2,0,0.4c0,0.3,0.1,0.6,0.1,1
			c0,0.1,0,0.1,0,0.2c0,0.4,0.1,0.7,0.1,1.1c0,0,0,0.1,0,0.1c0,0.4,0.1,0.8,0.2,1.1c0,0,0,0,0,0c0.3,2.4,0.8,4.7,1.5,7c0,0,0,0,0,0
			c0.1,0.4,0.2,0.7,0.3,1.1c0,0,0,0,0,0.1s0,0,0,0.1c0.1,0.3,0.2,0.6,0.3,1c0,0.1,0.1,0.2,0.1,0.2c0.1,0.3,0.2,0.6,0.3,0.8
			c0,0.1,0.1,0.3,0.1,0.4c0.1,0.2,0.2,0.5,0.3,0.7c0.1,0.2,0.1,0.3,0.2,0.5c0.1,0.2,0.2,0.4,0.2,0.5c0.1,0.2,0.2,0.4,0.3,0.7
			c0.1,0.1,0.1,0.3,0.2,0.4c0.1,0.3,0.2,0.5,0.4,0.8c0,0.1,0.1,0.2,0.1,0.3c0.1,0.3,0.3,0.6,0.4,0.9c0,0,0,0.1,0.1,0.1
			c0.2,0.3,0.3,0.7,0.5,1c0,0,0,0,0,0c0,0.1,0.1,0.1,0.1,0.2l25.2-15.2l0.1-0.1C72,191.4,71.4,189.2,71.1,186.9z"/>
		<polygon class="st1" points="43,200.5 43,200.5 43.9,200.2 		"/>
		<path class="st2" d="M78.4,200.5L78.4,200.5l-20.9,20.9c0.1,0.1,0.2,0.2,0.3,0.3c0.2,0.2,0.4,0.4,0.6,0.5c0.1,0.1,0.2,0.2,0.3,0.3
			c0.2,0.2,0.5,0.4,0.7,0.6c0.1,0.1,0.1,0.1,0.2,0.2c0.3,0.2,0.5,0.4,0.8,0.7c0,0,0.1,0.1,0.1,0.1c0.3,0.2,0.6,0.5,0.9,0.7
			c0,0,0,0,0,0c1.3,0.9,2.6,1.8,3.9,2.6c0,0,0.1,0.1,0.1,0.1c0.3,0.2,0.5,0.3,0.8,0.5c0.2,0.1,0.3,0.2,0.5,0.3
			c0.1,0.1,0.3,0.2,0.4,0.3c0.3,0.1,0.5,0.3,0.8,0.4c0,0,0.1,0,0.1,0.1c0.8,0.4,1.5,0.8,2.3,1.1l0,0l0.7-1.8l10.5-25.4l0-0.1
			C80.5,202.1,79.4,201.3,78.4,200.5z"/>
		<path class="st3" d="M76.2,198.4c-0.2-0.3-0.4-0.5-0.6-0.8c-0.2-0.2-0.4-0.5-0.5-0.7c-0.2-0.3-0.4-0.5-0.6-0.8
			c-0.2-0.3-0.4-0.6-0.5-0.8l-25.3,15.2c0.4,0.6,0.8,1.3,1.2,1.9c0,0,0,0,0,0.1l0,0c0,0,0,0,0,0c0,0,0,0,0,0.1c0,0,0,0,0,0
			c0,0,0.1,0.1,0.1,0.1c0,0,0,0,0,0c0,0,0,0,0,0c0,0,0,0,0,0c0.4,0.6,0.9,1.3,1.4,1.9c0,0,0,0,0,0c0,0,0,0,0,0
			c0.2,0.3,0.4,0.5,0.6,0.8c0,0,0.1,0.1,0.1,0.1c0.2,0.3,0.4,0.5,0.7,0.8c0.1,0.1,0.1,0.1,0.2,0.2c0.2,0.2,0.4,0.5,0.6,0.7
			c0.1,0.1,0.2,0.2,0.3,0.3c0.2,0.2,0.3,0.4,0.5,0.6c0.1,0.1,0.2,0.2,0.3,0.3c0,0,0.1,0.1,0.1,0.1c0.1,0.1,0.3,0.3,0.4,0.4
			c0.1,0.1,0.1,0.1,0.2,0.2c0.2,0.2,0.5,0.5,0.7,0.7l20.8-20.9C76.7,198.9,76.4,198.7,76.2,198.4z"/>
		<path class="st2" d="M103.9,200.5c-0.2,0.2-0.5,0.4-0.7,0.5l0.1,0.1l15.2,25.2c0.7-0.5,1.4-0.9,2.1-1.4c1.5-1.1,2.9-2.3,4.3-3.5
			L103.9,200.5L103.9,200.5z"/>
		<path class="st1" d="M116.5,227.6C116.5,227.5,116.5,227.5,116.5,227.6L116.5,227.6C116.5,227.5,116.5,227.5,116.5,227.6
			L116.5,227.6z"/>
		<polygon class="st1" points="116.5,227.6 116.5,227.6 116.5,227.6 116.5,227.6 		"/>
		<path class="st1" d="M116.5,227.5L116.5,227.5c0.1,0,0.1-0.1,0.2-0.1l0,0C116.7,227.5,116.6,227.5,116.5,227.5z"/>
		<polygon class="st1" points="116.5,227.6 116.5,227.6 116.5,227.6 		"/>
		<polygon class="st1" points="116.5,227.6 116.5,227.6 116.4,227.5 		"/>
		<path class="st1" d="M116.5,227.6L116.5,227.6C116.5,227.5,116.5,227.5,116.5,227.6L116.5,227.6
			C116.5,227.5,116.5,227.5,116.5,227.6z"/>
		<polygon class="st1" points="116.5,227.6 116.5,227.6 116.5,227.6 116.5,227.6 		"/>
		<polygon class="st1" points="116.5,227.6 116.5,227.6 116.5,227.6 116.5,227.6 		"/>
		<path class="st1" d="M116.5,227.6C116.5,227.6,116.5,227.6,116.5,227.6L116.5,227.6C116.5,227.6,116.5,227.6,116.5,227.6
			L116.5,227.6C116.5,227.6,116.5,227.6,116.5,227.6z"/>
		<path class="st1" d="M116.5,227.5c0.1,0,0.1-0.1,0.2-0.1C116.7,227.5,116.6,227.5,116.5,227.5L116.5,227.5z"/>
		<polygon class="st1" points="116.7,227.4 116.7,227.4 116.7,227.4 		"/>
		
			<rect x="116.5" y="227.6" transform="matrix(0.8321 -0.5547 0.5547 0.8321 -106.6705 102.8268)" class="st1" width="0" height="0"/>
		<polygon class="st1" points="116.5,227.6 116.5,227.6 116.5,227.6 		"/>
		<polygon class="st1" points="116.5,227.6 116.5,227.6 116.5,227.6 116.5,227.6 116.5,227.6 		"/>
		<path class="st0" d="M116.2,226.6l-0.5-0.9l-14.2-23.6c-0.3,0.2-0.6,0.3-0.9,0.5c-0.3,0.2-0.6,0.3-0.9,0.5c-2.7,1.3-5.7,2-8.6,2
			c-1.9,0-3.9-0.3-5.7-0.8c-0.3-0.1-0.6-0.2-0.9-0.3c-0.3-0.1-0.6-0.2-0.9-0.3L73,228.9l-0.4,1l-0.4,0.9l0,0c0,0,0.1,0,0.1,0
			c0,0,0.1,0,0.1,0l0,0c0,0,0,0,0,0c0,0,0,0,0,0c0.2,0.1,0.5,0.2,0.7,0.3c0.3,0.1,0.6,0.2,0.9,0.4c0.2,0.1,0.3,0.1,0.5,0.2l0,0l0,0
			c3.3,1.2,6.7,2,10.1,2.4c0.1,0,0.3,0,0.4,0.1c0.1,0,0.3,0,0.4,0c0.3,0,0.5,0.1,0.8,0.1c0.1,0,0.1,0,0.2,0c0.3,0,0.7,0.1,1,0.1
			c0.1,0,0.2,0,0.3,0c0.3,0,0.6,0,0.9,0.1c0.2,0,0.3,0,0.5,0c0.2,0,0.5,0,0.7,0c0.3,0,0.7,0,1,0c0.1,0,0.2,0,0.2,0
			c2.8,0,5.5-0.2,8.2-0.7h0c0,0,0.1,0,0.1,0c0.3-0.1,0.6-0.1,0.9-0.2c0.2,0,0.3-0.1,0.5-0.1c0.2,0,0.3-0.1,0.5-0.1
			c0.3-0.1,0.6-0.1,0.8-0.2c0.1,0,0.1,0,0.2,0c4.1-1,8.1-2.5,11.9-4.4l0,0l0,0c0.2-0.1,0.5-0.3,0.7-0.4c0.3-0.2,0.6-0.3,0.9-0.5
			c0.2-0.1,0.4-0.2,0.6-0.3c0,0,0,0,0,0c0,0,0,0,0,0c0,0,0,0,0,0l0,0c0,0,0,0,0,0c0,0,0,0,0,0l0-0.1l0,0.1c0,0,0,0,0,0c0,0,0,0,0,0
			c0,0,0,0,0,0c0.1,0,0.1-0.1,0.2-0.1l0,0L116.2,226.6z"/>
		<path class="st0" d="M78.4,169.4c0.2-0.2,0.5-0.4,0.7-0.5l-0.1-0.1l-15.2-25.2c-0.7,0.5-1.4,0.9-2.1,1.4c-1.5,1.1-2.9,2.3-4.3,3.5
			L78.4,169.4L78.4,169.4z"/>
		<path class="st2" d="M56.1,149.9c-0.2,0.2-0.5,0.5-0.7,0.7c-0.2,0.2-0.5,0.5-0.7,0.7c-1.5,1.7-2.9,3.4-4.2,5.2
			c-0.1,0.1-0.1,0.2-0.2,0.3c-0.1,0.2-0.3,0.4-0.4,0.6c-0.1,0.2-0.3,0.4-0.4,0.7c-0.1,0.1-0.1,0.2-0.2,0.2c-4.8,7.5-7.4,16-7.7,24.6
			c0,0.3,0,0.7,0,1c0,0.3,0,0.7,0,1l29.5,0c0-0.3,0-0.7,0-1c0-0.3,0-0.7,0.1-1c0.4-3.8,1.9-7.6,4.4-10.7c0.2-0.3,0.4-0.5,0.7-0.7
			c0.2-0.2,0.4-0.5,0.7-0.7L56.1,149.9z"/>
		<path class="st2" d="M116.9,142.5c0,0-0.1,0-0.1-0.1c-0.3-0.2-0.5-0.3-0.8-0.5c-0.2-0.1-0.3-0.2-0.5-0.3c-0.2-0.1-0.3-0.2-0.5-0.3
			c-0.3-0.1-0.5-0.3-0.8-0.4c0,0-0.1,0-0.1-0.1c-1.7-0.9-3.5-1.7-5.3-2.4c0,0-0.1,0-0.1-0.1c-0.4-0.1-0.8-0.3-1.2-0.4
			c-3.2-1.1-6.6-1.9-9.9-2.4c-0.1,0-0.3,0-0.4-0.1c-0.1,0-0.3,0-0.4,0c-0.3,0-0.5-0.1-0.8-0.1c-0.1,0-0.1,0-0.2,0
			c-0.3,0-0.6-0.1-1-0.1c-0.1,0-0.2,0-0.4,0c-0.3,0-0.5,0-0.8,0c-0.1,0-0.3,0-0.4,0l0,29.4v0.1c1.5,0.2,3,0.5,4.5,1l21.8-21.8
			C118.6,143.6,117.7,143,116.9,142.5z"/>
		<rect x="65.8" y="142.4" transform="matrix(0.8566 -0.516 0.516 0.8566 -64.2876 54.4446)" class="st4" width="0" height="1"/>
		<polygon class="st4" points="65.5,142.4 65.5,142.4 65.5,142.4 		"/>
		<path class="st3" d="M90.1,135.3c-0.3,0-0.7,0-1,0c-2.1,0.1-4.2,0.3-6.2,0.6c0,0-0.1,0-0.1,0c-0.3,0-0.6,0.1-0.9,0.2
			c-0.2,0-0.3,0.1-0.5,0.1c-0.2,0-0.3,0.1-0.5,0.1c-0.3,0.1-0.6,0.1-0.8,0.2h0c-0.1,0-0.1,0-0.2,0c-4.1,1-8.1,2.5-11.9,4.4
			c0,0,0,0,0,0l0,0c-0.2,0.1-0.5,0.3-0.7,0.4c-0.3,0.2-0.6,0.3-0.9,0.5c-0.2,0.1-0.4,0.2-0.6,0.4c0,0,0,0,0,0c0,0,0,0,0,0
			c0,0,0,0,0,0c-0.1,0-0.1,0.1-0.2,0.1l0,0l0.5,0.9h0l14.7,24.4c0.3-0.2,0.6-0.3,0.9-0.5c0.3-0.2,0.6-0.3,0.9-0.5
			c2.1-1,4.3-1.6,6.6-1.8c0.3,0,0.7-0.1,1-0.1c0.3,0,0.7,0,1,0l0-29.5C90.8,135.3,90.5,135.3,90.1,135.3z"/>
		<path class="st2" d="M140.7,182.5c0-0.3,0-0.5,0-0.8c0-0.1,0-0.3,0-0.4c0-0.3,0-0.6-0.1-0.9c0-0.1,0-0.2,0-0.2
			c0-0.3-0.1-0.7-0.1-1c0,0,0-0.1,0-0.1c0,0,0,0,0,0c0-0.4-0.1-0.7-0.1-1.1c0,0,0,0,0,0c-0.3-2.4-0.8-4.7-1.5-7c0,0,0,0,0,0
			c-0.1-0.4-0.2-0.7-0.3-1.1c0,0,0-0.1,0-0.1c-0.1-0.3-0.2-0.6-0.3-1c0-0.1-0.1-0.2-0.1-0.3c-0.1-0.3-0.2-0.5-0.3-0.8
			c0-0.1-0.1-0.3-0.1-0.4c-0.1-0.2-0.2-0.5-0.3-0.7c-0.1-0.2-0.1-0.4-0.2-0.5c-0.1-0.2-0.1-0.4-0.2-0.5c-0.1-0.2-0.2-0.4-0.3-0.7
			c-0.1-0.1-0.1-0.3-0.2-0.4c-0.1-0.3-0.2-0.5-0.4-0.8c0-0.1-0.1-0.2-0.1-0.2c-0.1-0.3-0.3-0.6-0.4-0.9c0,0,0-0.1-0.1-0.1
			c-0.2-0.3-0.3-0.7-0.5-1c0,0,0,0,0,0c-0.9-1.6-1.8-3.1-2.8-4.6l-21.8,21.8c0.5,1.5,0.8,3,1,4.5h0.1h29.4
			C140.7,182.8,140.7,182.6,140.7,182.5z"/>
		<path class="st3" d="M111.3,184.9c0,0.3,0,0.7,0,1c0,0.3,0,0.7-0.1,1c-0.4,3.8-1.9,7.6-4.4,10.7c-0.2,0.3-0.4,0.5-0.7,0.7
			c-0.2,0.2-0.4,0.5-0.7,0.7l20.9,20.9c0.2-0.2,0.5-0.5,0.7-0.7c0.2-0.2,0.5-0.5,0.7-0.7c1.5-1.7,3-3.4,4.2-5.2
			c0.1-0.1,0.1-0.1,0.1-0.2c0.2-0.2,0.3-0.4,0.5-0.7c0.1-0.2,0.3-0.4,0.4-0.6c0.1-0.1,0.1-0.2,0.2-0.3c4.8-7.5,7.3-16,7.7-24.6
			c0-0.3,0-0.7,0-1c0-0.3,0-0.7,0-1H111.3z"/>
	</g>
	<path class="st5" d="M149.5,126.6c-5.4-5.4-14.1-5.4-19.5,0c-4.3,4.3-5.2,10.7-2.6,15.9l-30.1,30.1c-5.2-2.6-11.6-1.7-15.9,2.6
		c-5.4,5.4-5.4,14.1,0,19.5c5.4,5.4,14.1,5.4,19.5,0c4.3-4.3,5.2-10.7,2.6-15.9l30.1-30.1c5.2,2.6,11.6,1.7,15.9-2.6
		C154.9,140.7,154.9,132,149.5,126.6z"/>
</g>
<g>
	<path class="st5" d="M155.9,184.5c0-14.8,10.8-25.4,25.7-25.4c14.8,0,25.6,10.6,25.6,25.4c0,14.8-10.8,25.4-25.6,25.4
		C166.7,209.9,155.9,199.3,155.9,184.5z M196.4,184.5c0-9.2-5.8-16.1-14.9-16.1c-9.1,0-14.9,6.9-14.9,16.1c0,9.1,5.8,16.1,14.9,16.1
		C190.6,200.6,196.4,193.6,196.4,184.5z"/>
	<path class="st5" d="M212.7,209V160h22.9c10.7,0,16.5,7.2,16.5,15.8c0,8.5-5.9,15.7-16.5,15.7h-12.5V209H212.7z M241.4,175.8
		c0-4.1-3.2-6.6-7.3-6.6h-11v13.2h11C238.3,182.3,241.4,179.8,241.4,175.8z"/>
	<path class="st5" d="M256.8,209V160h34.7v9.2h-24.3v10.3H291v9.2h-23.8v11.2h24.3v9.2H256.8z"/>
	<path class="st5" d="M331.7,209l-23.4-32v32h-10.4V160h10.7l22.7,30.8V160h10.4V209H331.7z"/>
	<path class="st5" d="M386.5,209l-3.1-8.3h-21l-3.1,8.3h-11.8l18.9-49.1h13.1l18.9,49.1H386.5z M372.8,170.4l-7.6,21.1h15.3
		L372.8,170.4z"/>
	<path class="st5" d="M401,209V160H424c10.7,0,16.5,7.2,16.5,15.8c0,8.5-5.9,15.7-16.5,15.7h-12.5V209H401z M429.8,175.8
		c0-4.1-3.2-6.6-7.3-6.6h-11v13.2h11C426.6,182.3,429.8,179.8,429.8,175.8z"/>
	<path class="st5" d="M445.1,209V160h10.4V209H445.1z"/>
</g>
<rect x="655.7" y="94.9" class="st6" width="5.3" height="0"/>
</svg>
