<?xml version="1.0" encoding="UTF-8"?><svg id="Layer_1" xmlns="http://www.w3.org/2000/svg" viewBox="0 0 504 360"><defs><style>.cls-1{fill:#424143;}.cls-2{fill:#4d5a31;}.cls-3{fill:#6ba43a;}.cls-4{fill:#93d500;}</style></defs><g><g><path class="cls-4" d="M71.13,186.93h-29.56c0,.14,0,.29,.02,.43,.01,.28,.03,.56,.05,.83,0,.12,.01,.24,.02,.36,.02,.32,.05,.64,.08,.96,0,.07,.01,.14,.02,.22,.03,.36,.07,.71,.12,1.07,0,.04,0,.07,.01,.1,.05,.38,.1,.76,.15,1.14,0,0,0,0,0,.01,.34,2.36,.85,4.69,1.53,6.98,0,0,0,.02,0,.03,.11,.36,.22,.72,.33,1.08,0,.02,.01,.04,.02,.06s.01,.04,.02,.06c.1,.32,.21,.64,.33,.97,.03,.08,.06,.16,.09,.24,.1,.28,.2,.56,.3,.84,.05,.13,.1,.25,.14,.38,.09,.23,.18,.46,.27,.69,.07,.17,.14,.35,.21,.52,.07,.18,.15,.36,.23,.54,.09,.22,.19,.44,.29,.66,.06,.13,.12,.26,.18,.39,.12,.26,.24,.53,.37,.79,.04,.08,.08,.17,.12,.25,.14,.3,.29,.6,.44,.9,.03,.05,.05,.09,.07,.14,.17,.33,.34,.66,.52,.98,0,.01,.02,.03,.02,.04,.04,.07,.08,.13,.12,.2l25.24-15.21,.09-.06c-1-2.1-1.62-4.33-1.85-6.6Z"/><polygon class="cls-4" points="42.97 200.48 42.98 200.51 43.93 200.21 42.97 200.48"/><path class="cls-2" d="M78.39,200.5l-.07,.07-20.82,20.82c.11,.1,.21,.2,.32,.3,.19,.18,.39,.35,.59,.52,.1,.09,.2,.18,.3,.27,.24,.2,.47,.4,.71,.6,.06,.05,.13,.11,.19,.16,.27,.22,.54,.44,.81,.65,.03,.03,.07,.06,.1,.08,.3,.23,.59,.46,.89,.69,.01,0,.02,.02,.03,.02,1.25,.94,2.55,1.82,3.89,2.63,.05,.03,.09,.06,.14,.08,.25,.15,.51,.3,.77,.45,.16,.09,.31,.18,.47,.27,.15,.09,.3,.17,.45,.25,.27,.15,.54,.3,.81,.44,.04,.02,.07,.04,.11,.06,.76,.4,1.53,.76,2.3,1.12h0s.74-1.79,.74-1.79l10.47-25.43,.04-.09c-1.14-.61-2.24-1.33-3.27-2.18Z"/><path class="cls-3" d="M76.23,198.42c-.22-.25-.44-.51-.65-.77-.19-.23-.37-.46-.54-.7-.2-.27-.39-.54-.58-.82-.19-.28-.37-.56-.54-.84l-25.27,15.23c.39,.64,.79,1.27,1.21,1.89,.01,.02,.03,.04,.04,.07h0s0,.02,.01,.02c.01,.02,.03,.04,.04,.06,0,0,0,0,0,0,.03,.05,.07,.1,.1,.15,0,0,0,0,0,0,0,0,0,0,0,0,0,0,0,0,0,0,.44,.65,.89,1.29,1.35,1.91,.01,.01,.02,.03,.03,.04,0,.01,.02,.03,.03,.04,.2,.27,.4,.54,.61,.8,.03,.03,.05,.07,.08,.1,.21,.27,.43,.54,.65,.81,.05,.06,.11,.13,.16,.19,.2,.24,.4,.48,.6,.71,.09,.1,.18,.2,.27,.3,.17,.2,.35,.39,.52,.59,.1,.11,.2,.21,.3,.32,.05,.05,.09,.1,.13,.15,.13,.14,.26,.28,.39,.42,.05,.06,.11,.11,.16,.16,.23,.24,.46,.48,.7,.72l20.85-20.85c-.24-.24-.46-.48-.68-.73Z"/><path class="cls-2" d="M103.86,200.49c-.23,.19-.46,.37-.7,.54l.05,.09,15.2,25.23c.7-.46,1.4-.93,2.08-1.43,1.47-1.08,2.9-2.26,4.27-3.53l-20.82-20.82-.08-.08Z"/><path class="cls-4" d="M116.5,227.55s.02-.01,.03-.02h0s-.02,.01-.03,.02h0Z"/><polygon class="cls-4" points="116.48 227.56 116.49 227.56 116.49 227.56 116.48 227.56 116.48 227.56"/><path class="cls-4" d="M116.53,227.53h0c.07-.04,.13-.07,.2-.11h0c-.07,.03-.13,.07-.2,.11Z"/><polygon class="cls-4" points="116.49 227.56 116.5 227.55 116.5 227.55 116.49 227.56"/><polygon class="cls-4" points="116.48 227.56 116.49 227.56 116.45 227.5 116.48 227.56"/><path class="cls-4" d="M116.5,227.55h0s.02-.01,.03-.02h0s-.02,.01-.03,.02Z"/><polygon class="cls-4" points="116.47 227.57 116.47 227.57 116.48 227.56 116.48 227.56 116.47 227.57"/><polygon class="cls-4" points="116.48 227.56 116.48 227.56 116.48 227.56 116.48 227.56 116.48 227.56"/><path class="cls-4" d="M116.49,227.56s0,0,0,0h0s0,0,.01,0h0s0,0,0,0Z"/><path class="cls-4" d="M116.53,227.53c.07-.04,.13-.07,.2-.11-.07,.04-.13,.07-.2,.11h0Z"/><polygon class="cls-4" points="116.73 227.42 116.73 227.41 116.73 227.41 116.73 227.42"/><rect class="cls-4" x="116.47" y="227.57" width="0" height="0" transform="translate(-106.67 102.83) rotate(-33.69)"/><polygon class="cls-4" points="116.46 227.57 116.46 227.57 116.47 227.57 116.46 227.57"/><polygon class="cls-4" points="116.47 227.57 116.47 227.57 116.47 227.57 116.47 227.57 116.47 227.57 116.47 227.57"/><path class="cls-4" d="M116.21,226.56l-.52-.86-14.19-23.56c-.29,.17-.58,.33-.87,.49-.3,.16-.59,.31-.9,.45-2.73,1.29-5.68,1.95-8.63,1.95-1.94,0-3.87-.28-5.74-.84-.32-.1-.63-.22-.94-.33-.31-.11-.63-.21-.94-.33l-10.46,25.41-.41,1-.35,.85h0s.05,.02,.08,.04c.03,.01,.06,.02,.09,.03h0s0,0,0,0c0,0,.01,0,.02,0,.25,.1,.5,.19,.74,.28,.31,.12,.62,.24,.93,.36,.16,.06,.32,.13,.48,.18h0s0,0,0,0c3.28,1.16,6.67,1.97,10.12,2.42,.13,.02,.27,.04,.4,.05,.14,.02,.28,.03,.42,.05,.27,.03,.53,.06,.8,.09,.07,0,.13,.01,.2,.02,.33,.03,.65,.06,.98,.08,.11,0,.22,.01,.33,.02,.29,.02,.57,.04,.86,.05,.18,0,.35,.01,.53,.02,.23,0,.45,.02,.68,.02,.33,0,.66,.01,.99,.01,.08,0,.16,0,.23,0,2.76,0,5.51-.23,8.23-.69h0s.09-.01,.14-.02c.29-.05,.58-.1,.86-.16,.16-.03,.33-.06,.49-.09,.17-.03,.34-.07,.51-.11,.28-.06,.56-.12,.84-.18,.05-.01,.1-.02,.15-.03,4.14-.97,8.14-2.46,11.9-4.44h0s0,0,0,0c.25-.13,.49-.28,.73-.41,.29-.16,.58-.32,.87-.49,.2-.12,.4-.22,.6-.34,0,0,0,0,0,0,0,0,0,0,0,0h0s0,0,0,0c0,0,0,0,0,0,0,0,0,0,0,0l-.04-.06,.04,.06s0,0,0,0h0s.02-.02,.03-.02c.07-.04,.13-.08,.2-.12h0s-.52-.86-.52-.86Z"/><path class="cls-4" d="M78.41,169.37c.23-.19,.46-.37,.7-.54l-.05-.09-15.2-25.23c-.71,.46-1.4,.94-2.09,1.44-1.47,1.08-2.89,2.26-4.26,3.52l20.82,20.82,.08,.08Z"/><path class="cls-2" d="M56.06,149.86c-.24,.24-.46,.48-.69,.72-.23,.24-.47,.48-.69,.72-1.54,1.67-2.94,3.41-4.21,5.22-.06,.09-.12,.17-.18,.26-.14,.21-.28,.42-.42,.62-.15,.22-.29,.44-.43,.66-.05,.08-.11,.16-.16,.24-4.79,7.51-7.36,16.03-7.7,24.63-.01,.33-.02,.67-.03,1,0,.33-.02,.67-.02,1h29.49c0-.33,.03-.67,.05-1,.02-.33,.02-.67,.05-1,.38-3.84,1.86-7.59,4.45-10.74,.21-.26,.45-.5,.67-.74,.22-.25,.43-.5,.67-.74l-20.85-20.85Z"/><path class="cls-2" d="M116.9,142.54s-.08-.05-.12-.07c-.26-.16-.52-.31-.78-.47-.15-.09-.3-.17-.46-.26-.15-.09-.31-.17-.46-.26-.27-.15-.53-.29-.8-.43-.04-.02-.08-.04-.13-.07-1.73-.9-3.5-1.7-5.32-2.39-.05-.02-.09-.04-.14-.05-.39-.15-.79-.29-1.19-.43-3.22-1.12-6.55-1.91-9.94-2.36-.14-.02-.28-.04-.41-.06-.14-.02-.28-.03-.41-.05-.27-.03-.53-.06-.8-.09-.07,0-.15-.01-.22-.02-.32-.03-.64-.06-.95-.08-.12,0-.25-.02-.37-.02-.27-.02-.55-.04-.82-.05-.15,0-.29-.01-.43-.02v29.44s0,.12,0,.12c1.52,.16,3.02,.48,4.48,.97l21.75-21.75c-.81-.56-1.62-1.1-2.46-1.61Z"/><rect class="cls-3" x="65.8" y="142.37" width="0" height="1" transform="translate(-64.29 54.44) rotate(-31.07)"/><polygon class="cls-3" points="65.54 142.44 65.54 142.45 65.54 142.45 65.54 142.44"/><path class="cls-3" d="M90.14,135.35c-.33,0-.67,0-1,.02-2.09,.08-4.17,.3-6.23,.64-.05,0-.09,.01-.14,.02-.29,.05-.58,.1-.86,.16-.16,.03-.33,.06-.49,.09-.17,.03-.34,.07-.51,.11-.28,.06-.56,.12-.84,.18h0c-.05,.01-.1,.02-.15,.03-4.14,.97-8.14,2.46-11.9,4.44,0,0,0,0,0,0h0c-.25,.13-.48,.28-.73,.41-.29,.16-.58,.33-.87,.49-.22,.12-.43,.24-.65,.37,0,0,0,0,0,0,0,0,0,0,0,0-.01,0-.03,.02-.05,.03-.06,.03-.11,.06-.17,.1h0s.52,.86,.52,.86h0l14.71,24.41c.29-.17,.58-.33,.87-.49,.3-.16,.59-.31,.9-.45,2.1-1,4.33-1.62,6.6-1.85,.33-.03,.67-.06,1-.08,.33-.02,.67-.03,1-.03v-29.49c-.33,0-.67,.01-1,.02Z"/><path class="cls-2" d="M140.68,182.49c-.01-.26-.03-.53-.05-.79,0-.13-.02-.26-.03-.4-.02-.31-.05-.62-.08-.93,0-.08-.01-.16-.02-.24-.03-.35-.07-.7-.11-1.04,0-.03,0-.06-.01-.08,0-.01,0-.03,0-.04-.05-.38-.1-.75-.15-1.12,0-.01,0-.02,0-.03-.34-2.35-.85-4.68-1.52-6.97,0-.02,0-.03-.01-.04-.11-.36-.22-.71-.33-1.06-.02-.05-.03-.09-.04-.14-.1-.32-.21-.64-.32-.95-.03-.09-.06-.17-.09-.26-.1-.27-.2-.55-.3-.82-.05-.13-.1-.26-.15-.39-.09-.23-.18-.45-.27-.68-.07-.18-.14-.36-.22-.53-.07-.18-.15-.35-.22-.53-.1-.22-.2-.45-.29-.67-.06-.13-.11-.25-.17-.38-.12-.27-.25-.53-.37-.8-.04-.08-.08-.16-.12-.24-.15-.3-.3-.61-.45-.91-.02-.04-.04-.08-.07-.13-.17-.33-.34-.66-.52-.99,0-.01-.01-.02-.02-.04-.86-1.58-1.8-3.11-2.82-4.58l-21.76,21.76c.5,1.46,.82,2.96,.97,4.48h29.56c0-.15,0-.29-.02-.44Z"/><path class="cls-3" d="M111.25,184.93c0,.33-.03,.67-.05,1-.02,.33-.02,.67-.05,1-.38,3.84-1.86,7.59-4.45,10.74-.21,.26-.45,.5-.67,.74-.22,.25-.43,.5-.67,.74l20.85,20.85c.24-.24,.46-.48,.69-.72,.23-.24,.47-.48,.69-.72,1.54-1.67,2.95-3.42,4.22-5.24,.05-.07,.1-.14,.15-.21,.16-.22,.31-.45,.46-.67,.13-.2,.27-.4,.4-.61,.06-.1,.13-.2,.19-.3,4.78-7.51,7.34-16.02,7.68-24.61,.01-.33,.02-.67,.03-1,0-.33,.02-.67,.02-1h-29.49Z"/></g><path class="cls-1" d="M149.5,126.57c-5.39-5.39-14.14-5.39-19.54,0-4.3,4.3-5.16,10.74-2.6,15.9l-30.09,30.09c-5.17-2.56-11.6-1.7-15.9,2.6-5.4,5.39-5.39,14.14,0,19.54,5.4,5.4,14.14,5.39,19.54,0,4.3-4.3,5.16-10.74,2.6-15.9l30.09-30.09c5.17,2.56,11.6,1.7,15.9-2.6,5.39-5.39,5.39-14.14,0-19.54Z"/></g><g><path class="cls-1" d="M155.91,184.53c0-14.78,10.81-25.37,25.67-25.37s25.59,10.59,25.59,25.37-10.81,25.37-25.59,25.37-25.67-10.59-25.67-25.37Zm40.52,0c0-9.19-5.81-16.11-14.86-16.11s-14.93,6.91-14.93,16.11,5.81,16.11,14.93,16.11,14.86-6.99,14.86-16.11Z"/><path class="cls-1" d="M212.68,209.02v-49.06h22.95c10.66,0,16.47,7.21,16.47,15.81s-5.88,15.74-16.47,15.74h-12.5v17.5h-10.44Zm28.76-33.24c0-4.12-3.16-6.62-7.28-6.62h-11.03v13.16h11.03c4.12,0,7.28-2.5,7.28-6.55Z"/><path class="cls-1" d="M256.81,209.02v-49.06h34.72v9.19h-24.27v10.3h23.76v9.19h-23.76v11.18h24.27v9.19h-34.72Z"/><path class="cls-1" d="M331.68,209.02l-23.39-31.99v31.99h-10.45v-49.06h10.74l22.73,30.82v-30.82h10.44v49.06h-10.08Z"/><path class="cls-1" d="M386.45,209.02l-3.09-8.31h-21.03l-3.09,8.31h-11.84l18.9-49.06h13.09l18.9,49.06h-11.84Zm-13.61-38.61l-7.65,21.11h15.3l-7.65-21.11Z"/><path class="cls-1" d="M401.01,209.02v-49.06h22.95c10.66,0,16.47,7.21,16.47,15.81s-5.89,15.74-16.47,15.74h-12.5v17.5h-10.44Zm28.76-33.24c0-4.12-3.16-6.62-7.28-6.62h-11.03v13.16h11.03c4.12,0,7.28-2.5,7.28-6.55Z"/><path class="cls-1" d="M445.14,209.02v-49.06h10.44v49.06h-10.44Z"/></g><g><g><path class="cls-4" d="M71.13,186.93h-29.56c0,.14,0,.29,.02,.43,.01,.28,.03,.56,.05,.83,0,.12,.01,.24,.02,.36,.02,.32,.05,.64,.08,.96,0,.07,.01,.14,.02,.22,.03,.36,.07,.71,.12,1.07,0,.04,0,.07,.01,.1,.05,.38,.1,.76,.15,1.14,0,0,0,0,0,.01,.34,2.36,.85,4.69,1.53,6.98,0,0,0,.02,0,.03,.11,.36,.22,.72,.33,1.08,0,.02,.01,.04,.02,.06s.01,.04,.02,.06c.1,.32,.21,.64,.33,.97,.03,.08,.06,.16,.09,.24,.1,.28,.2,.56,.3,.84,.05,.13,.1,.25,.14,.38,.09,.23,.18,.46,.27,.69,.07,.17,.14,.35,.21,.52,.07,.18,.15,.36,.23,.54,.09,.22,.19,.44,.29,.66,.06,.13,.12,.26,.18,.39,.12,.26,.24,.53,.37,.79,.04,.08,.08,.17,.12,.25,.14,.3,.29,.6,.44,.9,.03,.05,.05,.09,.07,.14,.17,.33,.34,.66,.52,.98,0,.01,.02,.03,.02,.04,.04,.07,.08,.13,.12,.2l25.24-15.21,.09-.06c-1-2.1-1.62-4.33-1.85-6.6Z"/><polygon class="cls-4" points="42.97 200.48 42.98 200.51 43.93 200.21 42.97 200.48"/><path class="cls-2" d="M78.39,200.5l-.07,.07-20.82,20.82c.11,.1,.21,.2,.32,.3,.19,.18,.39,.35,.59,.52,.1,.09,.2,.18,.3,.27,.24,.2,.47,.4,.71,.6,.06,.05,.13,.11,.19,.16,.27,.22,.54,.44,.81,.65,.03,.03,.07,.06,.1,.08,.3,.23,.59,.46,.89,.69,.01,0,.02,.02,.03,.02,1.25,.94,2.55,1.82,3.89,2.63,.05,.03,.09,.06,.14,.08,.25,.15,.51,.3,.77,.45,.16,.09,.31,.18,.47,.27,.15,.09,.3,.17,.45,.25,.27,.15,.54,.3,.81,.44,.04,.02,.07,.04,.11,.06,.76,.4,1.53,.76,2.3,1.12h0s.74-1.79,.74-1.79l10.47-25.43,.04-.09c-1.14-.61-2.24-1.33-3.27-2.18Z"/><path class="cls-3" d="M76.23,198.42c-.22-.25-.44-.51-.65-.77-.19-.23-.37-.46-.54-.7-.2-.27-.39-.54-.58-.82-.19-.28-.37-.56-.54-.84l-25.27,15.23c.39,.64,.79,1.27,1.21,1.89,.01,.02,.03,.04,.04,.07h0s0,.02,.01,.02c.01,.02,.03,.04,.04,.06,0,0,0,0,0,0,.03,.05,.07,.1,.1,.15,0,0,0,0,0,0,0,0,0,0,0,0,0,0,0,0,0,0,.44,.65,.89,1.29,1.35,1.91,.01,.01,.02,.03,.03,.04,0,.01,.02,.03,.03,.04,.2,.27,.4,.54,.61,.8,.03,.03,.05,.07,.08,.1,.21,.27,.43,.54,.65,.81,.05,.06,.11,.13,.16,.19,.2,.24,.4,.48,.6,.71,.09,.1,.18,.2,.27,.3,.17,.2,.35,.39,.52,.59,.1,.11,.2,.21,.3,.32,.05,.05,.09,.1,.13,.15,.13,.14,.26,.28,.39,.42,.05,.06,.11,.11,.16,.16,.23,.24,.46,.48,.7,.72l20.85-20.85c-.24-.24-.46-.48-.68-.73Z"/><path class="cls-2" d="M103.86,200.49c-.23,.19-.46,.37-.7,.54l.05,.09,15.2,25.23c.7-.46,1.4-.93,2.08-1.43,1.47-1.08,2.9-2.26,4.27-3.53l-20.82-20.82-.08-.08Z"/><path class="cls-4" d="M116.5,227.55s.02-.01,.03-.02h0s-.02,.01-.03,.02h0Z"/><polygon class="cls-4" points="116.48 227.56 116.49 227.56 116.49 227.56 116.48 227.56 116.48 227.56"/><path class="cls-4" d="M116.53,227.53h0c.07-.04,.13-.07,.2-.11h0c-.07,.03-.13,.07-.2,.11Z"/><polygon class="cls-4" points="116.49 227.56 116.5 227.55 116.5 227.55 116.49 227.56"/><polygon class="cls-4" points="116.48 227.56 116.49 227.56 116.45 227.5 116.48 227.56"/><path class="cls-4" d="M116.5,227.55h0s.02-.01,.03-.02h0s-.02,.01-.03,.02Z"/><polygon class="cls-4" points="116.47 227.57 116.47 227.57 116.48 227.56 116.48 227.56 116.47 227.57"/><polygon class="cls-4" points="116.48 227.56 116.48 227.56 116.48 227.56 116.48 227.56 116.48 227.56"/><path class="cls-4" d="M116.49,227.56s0,0,0,0h0s0,0,.01,0h0s0,0,0,0Z"/><path class="cls-4" d="M116.53,227.53c.07-.04,.13-.07,.2-.11-.07,.04-.13,.07-.2,.11h0Z"/><polygon class="cls-4" points="116.73 227.42 116.73 227.41 116.73 227.41 116.73 227.42"/><rect class="cls-4" x="116.47" y="227.57" width="0" height="0" transform="translate(-106.67 102.83) rotate(-33.69)"/><polygon class="cls-4" points="116.46 227.57 116.46 227.57 116.47 227.57 116.46 227.57"/><polygon class="cls-4" points="116.47 227.57 116.47 227.57 116.47 227.57 116.47 227.57 116.47 227.57 116.47 227.57"/><path class="cls-4" d="M116.21,226.56l-.52-.86-14.19-23.56c-.29,.17-.58,.33-.87,.49-.3,.16-.59,.31-.9,.45-2.73,1.29-5.68,1.95-8.63,1.95-1.94,0-3.87-.28-5.74-.84-.32-.1-.63-.22-.94-.33-.31-.11-.63-.21-.94-.33l-10.46,25.41-.41,1-.35,.85h0s.05,.02,.08,.04c.03,.01,.06,.02,.09,.03h0s0,0,0,0c0,0,.01,0,.02,0,.25,.1,.5,.19,.74,.28,.31,.12,.62,.24,.93,.36,.16,.06,.32,.13,.48,.18h0s0,0,0,0c3.28,1.16,6.67,1.97,10.12,2.42,.13,.02,.27,.04,.4,.05,.14,.02,.28,.03,.42,.05,.27,.03,.53,.06,.8,.09,.07,0,.13,.01,.2,.02,.33,.03,.65,.06,.98,.08,.11,0,.22,.01,.33,.02,.29,.02,.57,.04,.86,.05,.18,0,.35,.01,.53,.02,.23,0,.45,.02,.68,.02,.33,0,.66,.01,.99,.01,.08,0,.16,0,.23,0,2.76,0,5.51-.23,8.23-.69h0s.09-.01,.14-.02c.29-.05,.58-.1,.86-.16,.16-.03,.33-.06,.49-.09,.17-.03,.34-.07,.51-.11,.28-.06,.56-.12,.84-.18,.05-.01,.1-.02,.15-.03,4.14-.97,8.14-2.46,11.9-4.44h0s0,0,0,0c.25-.13,.49-.28,.73-.41,.29-.16,.58-.32,.87-.49,.2-.12,.4-.22,.6-.34,0,0,0,0,0,0,0,0,0,0,0,0h0s0,0,0,0c0,0,0,0,0,0,0,0,0,0,0,0l-.04-.06,.04,.06s0,0,0,0h0s.02-.02,.03-.02c.07-.04,.13-.08,.2-.12h0s-.52-.86-.52-.86Z"/><path class="cls-4" d="M78.41,169.37c.23-.19,.46-.37,.7-.54l-.05-.09-15.2-25.23c-.71,.46-1.4,.94-2.09,1.44-1.47,1.08-2.89,2.26-4.26,3.52l20.82,20.82,.08,.08Z"/><path class="cls-2" d="M56.06,149.86c-.24,.24-.46,.48-.69,.72-.23,.24-.47,.48-.69,.72-1.54,1.67-2.94,3.41-4.21,5.22-.06,.09-.12,.17-.18,.26-.14,.21-.28,.42-.42,.62-.15,.22-.29,.44-.43,.66-.05,.08-.11,.16-.16,.24-4.79,7.51-7.36,16.03-7.7,24.63-.01,.33-.02,.67-.03,1,0,.33-.02,.67-.02,1h29.49c0-.33,.03-.67,.05-1,.02-.33,.02-.67,.05-1,.38-3.84,1.86-7.59,4.45-10.74,.21-.26,.45-.5,.67-.74,.22-.25,.43-.5,.67-.74l-20.85-20.85Z"/><path class="cls-2" d="M116.9,142.54s-.08-.05-.12-.07c-.26-.16-.52-.31-.78-.47-.15-.09-.3-.17-.46-.26-.15-.09-.31-.17-.46-.26-.27-.15-.53-.29-.8-.43-.04-.02-.08-.04-.13-.07-1.73-.9-3.5-1.7-5.32-2.39-.05-.02-.09-.04-.14-.05-.39-.15-.79-.29-1.19-.43-3.22-1.12-6.55-1.91-9.94-2.36-.14-.02-.28-.04-.41-.06-.14-.02-.28-.03-.41-.05-.27-.03-.53-.06-.8-.09-.07,0-.15-.01-.22-.02-.32-.03-.64-.06-.95-.08-.12,0-.25-.02-.37-.02-.27-.02-.55-.04-.82-.05-.15,0-.29-.01-.43-.02v29.44s0,.12,0,.12c1.52,.16,3.02,.48,4.48,.97l21.75-21.75c-.81-.56-1.62-1.1-2.46-1.61Z"/><rect class="cls-3" x="65.8" y="142.37" width="0" height="1" transform="translate(-64.29 54.44) rotate(-31.07)"/><polygon class="cls-3" points="65.54 142.44 65.54 142.45 65.54 142.45 65.54 142.44"/><path class="cls-3" d="M90.14,135.35c-.33,0-.67,0-1,.02-2.09,.08-4.17,.3-6.23,.64-.05,0-.09,.01-.14,.02-.29,.05-.58,.1-.86,.16-.16,.03-.33,.06-.49,.09-.17,.03-.34,.07-.51,.11-.28,.06-.56,.12-.84,.18h0c-.05,.01-.1,.02-.15,.03-4.14,.97-8.14,2.46-11.9,4.44,0,0,0,0,0,0h0c-.25,.13-.48,.28-.73,.41-.29,.16-.58,.33-.87,.49-.22,.12-.43,.24-.65,.37,0,0,0,0,0,0,0,0,0,0,0,0-.01,0-.03,.02-.05,.03-.06,.03-.11,.06-.17,.1h0s.52,.86,.52,.86h0l14.71,24.41c.29-.17,.58-.33,.87-.49,.3-.16,.59-.31,.9-.45,2.1-1,4.33-1.62,6.6-1.85,.33-.03,.67-.06,1-.08,.33-.02,.67-.03,1-.03v-29.49c-.33,0-.67,.01-1,.02Z"/><path class="cls-2" d="M140.68,182.49c-.01-.26-.03-.53-.05-.79,0-.13-.02-.26-.03-.4-.02-.31-.05-.62-.08-.93,0-.08-.01-.16-.02-.24-.03-.35-.07-.7-.11-1.04,0-.03,0-.06-.01-.08,0-.01,0-.03,0-.04-.05-.38-.1-.75-.15-1.12,0-.01,0-.02,0-.03-.34-2.35-.85-4.68-1.52-6.97,0-.02,0-.03-.01-.04-.11-.36-.22-.71-.33-1.06-.02-.05-.03-.09-.04-.14-.1-.32-.21-.64-.32-.95-.03-.09-.06-.17-.09-.26-.1-.27-.2-.55-.3-.82-.05-.13-.1-.26-.15-.39-.09-.23-.18-.45-.27-.68-.07-.18-.14-.36-.22-.53-.07-.18-.15-.35-.22-.53-.1-.22-.2-.45-.29-.67-.06-.13-.11-.25-.17-.38-.12-.27-.25-.53-.37-.8-.04-.08-.08-.16-.12-.24-.15-.3-.3-.61-.45-.91-.02-.04-.04-.08-.07-.13-.17-.33-.34-.66-.52-.99,0-.01-.01-.02-.02-.04-.86-1.58-1.8-3.11-2.82-4.58l-21.76,21.76c.5,1.46,.82,2.96,.97,4.48h29.56c0-.15,0-.29-.02-.44Z"/><path class="cls-3" d="M111.25,184.93c0,.33-.03,.67-.05,1-.02,.33-.02,.67-.05,1-.38,3.84-1.86,7.59-4.45,10.74-.21,.26-.45,.5-.67,.74-.22,.25-.43,.5-.67,.74l20.85,20.85c.24-.24,.46-.48,.69-.72,.23-.24,.47-.48,.69-.72,1.54-1.67,2.95-3.42,4.22-5.24,.05-.07,.1-.14,.15-.21,.16-.22,.31-.45,.46-.67,.13-.2,.27-.4,.4-.61,.06-.1,.13-.2,.19-.3,4.78-7.51,7.34-16.02,7.68-24.61,.01-.33,.02-.67,.03-1,0-.33,.02-.67,.02-1h-29.49Z"/></g><path class="cls-1" d="M149.5,126.57c-5.39-5.39-14.14-5.39-19.54,0-4.3,4.3-5.16,10.74-2.6,15.9l-30.09,30.09c-5.17-2.56-11.6-1.7-15.9,2.6-5.4,5.39-5.39,14.14,0,19.54,5.4,5.4,14.14,5.39,19.54,0,4.3-4.3,5.16-10.74,2.6-15.9l30.09-30.09c5.17,2.56,11.6,1.7,15.9-2.6,5.39-5.39,5.39-14.14,0-19.54Z"/></g></svg>